<svg width="40" height="40" viewBox="0 0 40 40" fill="none" xmlns="http://www.w3.org/2000/svg"><rect width="40" height="40" rx="8.333" fill="#28514F"/><path d="M36.666 26.983c0 6.067-3.616 9.683-9.683 9.683H25c-.917 0-1.667-.75-1.667-1.666v-9.617c0-.45.367-.833.817-.833l2.933-.05a.53.53 0 0 0 .483-.417l.584-3.183a.504.504 0 0 0-.5-.584l-3.55.05a.847.847 0 0 1-.85-.816l-.067-4.084c0-.266.217-.5.5-.5l4-.066c.283 0 .5-.217.5-.5l-.067-4a.49.49 0 0 0-.5-.5l-4.5.066A4.994 4.994 0 0 0 18.2 15.05l.083 4.583c.017.467-.35.833-.817.85l-2 .033c-.283 0-.5.217-.5.5l.05 3.167c0 .283.217.5.5.5l2-.033c.467 0 .834.366.85.816l.15 9.5c.017.934-.733 1.7-1.666 1.7h-3.834c-6.066 0-9.683-3.616-9.683-9.7v-13.95c0-6.066 3.617-9.683 9.683-9.683h13.967c6.067 0 9.683 3.617 9.683 9.683z" fill="#fff"/></svg>