<svg width="303" height="163" viewBox="0 0 303 163" fill="none" xmlns="http://www.w3.org/2000/svg">
  <path d="M104.376 61.544q3.888 0 6.816-1.008 2.976-1.008 4.944-2.832a12 12 0 0 0 3.024-4.416q1.008-2.592 1.008-5.712 0-6.288-3.936-9.888-3.888-3.6-11.856-3.6H93.72v27.456zm0-35.472q6.624 0 11.52 1.536t8.112 4.368a16.8 16.8 0 0 1 4.752 6.768q1.584 3.984 1.584 8.832t-1.68 8.928a19.1 19.1 0 0 1-4.944 6.96q-3.264 2.928-8.16 4.56-4.848 1.584-11.184 1.584H93.72V95H83.496V26.072z" fill="#4F1964"/>
  <path d="M122.832 22.944q.36-2.448 1.344-4.296 1.008-1.848 2.52-3.072a10.3 10.3 0 0 1 3.456-1.872q1.968-.648 4.248-.648 2.304 0 4.176.672 1.896.648 3.24 1.824a7.8 7.8 0 0 1 2.088 2.808q.744 1.632.744 3.576 0 1.656-.408 2.928a6.9 6.9 0 0 1-1.128 2.208 6.3 6.3 0 0 1-1.776 1.608q-1.056.648-2.376 1.08 3.216.936 4.824 3 1.608 2.04 1.608 5.136 0 2.496-.936 4.44a9.7 9.7 0 0 1-2.544 3.288q-1.584 1.344-3.72 2.064-2.112.696-4.488.696-2.664 0-4.608-.624-1.944-.648-3.36-1.824-1.392-1.2-2.328-2.88t-1.584-3.768l2.232-.936q.888-.384 1.68-.216.816.168 1.176.888.384.768.864 1.656.48.864 1.224 1.608.768.72 1.872 1.224 1.128.48 2.76.48 1.656 0 2.88-.528 1.248-.552 2.064-1.392a5.7 5.7 0 0 0 1.248-1.92q.408-1.056.408-2.088a8.5 8.5 0 0 0-.312-2.376 3.73 3.73 0 0 0-1.224-1.872q-.888-.768-2.544-1.2-1.632-.456-4.296-.456v-3.72q2.184-.024 3.672-.432 1.512-.432 2.4-1.152a4.13 4.13 0 0 0 1.296-1.776q.408-1.032.408-2.256 0-1.32-.408-2.328a4.5 4.5 0 0 0-1.152-1.68 4.5 4.5 0 0 0-1.728-1.032q-1.008-.336-2.232-.336-1.176 0-2.184.336a6.3 6.3 0 0 0-1.776.936q-.768.6-1.296 1.44a5.8 5.8 0 0 0-.768 1.8q-.336.984-.912 1.32-.552.336-1.632.144z" fill="#C86251"/>
  <path d="M165.461 65.169a46.6 46.6 0 0 0 4.366 8.801 48 48 0 0 0 3.834 5.228 46 46 0 0 0 2.339 2.61C186.467 92.697 201.782 99 217.613 99A59 59 0 0 0 228 98.076c-5.561-14.793-25.723-27.965-41.547-32.92a46 46 0 0 1-1.261 3.115c13.455 4.178 31.896 15.125 37.749 27.148-16.83 1.634-33.667-4.557-44.601-16.221a43 43 0 0 1-2.34-2.684 45 45 0 0 1-3.017-4.204 44 44 0 0 1-3.871-7.686 55 55 0 0 0-3.651.545" fill="url(#a)"/>
  <path d="M124 98.075a59 59 0 0 0 10.387.924c13.375 0 31.583-9.273 41.613-17.238a53 53 0 0 1-2.325-2.557c-10.693 8.529-30.257 17.603-44.616 16.214C137.171 78.758 155.664 67.54 176 67.54c3.134 0 6.225.266 9.235.784a48 48 0 0 0 1.319-3.155 59 59 0 0 0-10.554-.95c-23.369 0-44.47 13.836-52 33.857" fill="url(#b)"/>
  <path d="M169.266 64.59c-2.756-12.713-1.764-32.641 6.735-43.27 11.771 14.734 13.185 34.941 3.017 50.99a45 45 0 0 1-3.017 4.204c.743.924 1.516 1.82 2.339 2.684a47.5 47.5 0 0 0 3.834-5.228c11.685-18.446 9.09-42.021-6.173-57.97-11.276 11.784-13.536 34.183-10.321 49.156a71 71 0 0 1 3.586-.565" fill="url(#c)"/>
  <path d="M27.26 125.2V154h-4.68v-12.82H8.12V154h-4.7v-28.8h4.7v12.6h14.46v-12.6zm14.258 8.08q2.26 0 4.08.74 1.84.74 3.12 2.1 1.3 1.36 2 3.3t.7 4.36-.7 4.36-2 3.32q-1.28 1.36-3.12 2.1-1.82.74-4.08.74-2.28 0-4.12-.74a8.9 8.9 0 0 1-3.12-2.1q-1.3-1.38-2-3.32t-.7-4.36.7-4.36 2-3.3a8.9 8.9 0 0 1 3.12-2.1q1.84-.74 4.12-.74m0 17.66q2.76 0 4.1-1.84 1.36-1.86 1.36-5.3t-1.36-5.3q-1.34-1.88-4.1-1.88-2.8 0-4.16 1.88-1.36 1.86-1.36 5.3t1.36 5.3q1.36 1.84 4.16 1.84M59.93 124.4V154h-4.3v-29.6zm9.787 9.2V154h-4.3v-20.4zm.72-6.16q0 .58-.24 1.1a2.9 2.9 0 0 1-.62.92 3.3 3.3 0 0 1-.94.62q-.52.22-1.12.22-.58 0-1.1-.22a3.2 3.2 0 0 1-.88-.62 3.4 3.4 0 0 1-.62-.92 2.8 2.8 0 0 1-.22-1.1q0-.6.22-1.12.24-.52.62-.9.38-.4.88-.62.52-.24 1.1-.24.6 0 1.12.24.54.22.94.62.4.38.62.9.24.52.24 1.12M87.3 137.3q-.16.28-.36.4t-.5.12q-.34 0-.74-.2-.4-.22-.94-.48a7.4 7.4 0 0 0-1.28-.46q-.72-.22-1.7-.22-.8 0-1.46.2-.64.18-1.1.54-.44.34-.68.82-.24.46-.24 1 0 .72.44 1.2t1.16.84q.72.34 1.64.62t1.88.6 1.88.74 1.64 1.04q.72.6 1.16 1.48.44.86.44 2.1 0 1.44-.52 2.66a6 6 0 0 1-1.52 2.12q-1 .9-2.5 1.4-1.48.5-3.4.5-1.06 0-2.06-.2-.98-.18-1.88-.5a11 11 0 0 1-1.66-.8 9 9 0 0 1-1.36-1l1-1.64q.18-.3.44-.46.28-.18.68-.18.42 0 .82.28.42.26.96.58.56.32 1.34.6.78.26 1.94.26.96 0 1.66-.22.7-.24 1.16-.64t.68-.9q.22-.52.22-1.1 0-.78-.44-1.28t-1.18-.86q-.72-.36-1.66-.64a78 78 0 0 1-1.88-.6q-.96-.32-1.9-.74a6.9 6.9 0 0 1-1.66-1.06 5.1 5.1 0 0 1-1.16-1.58q-.44-.94-.44-2.28 0-1.22.48-2.32a5.8 5.8 0 0 1 1.44-1.94q.96-.84 2.34-1.32 1.4-.5 3.22-.5 2.06 0 3.74.66t2.82 1.8zm25.081 16.7h-4.3v-17.02h-9.94v11.58q0 1.1.54 1.68t1.44.58q.5 0 .86-.12.36-.14.62-.28.26-.16.44-.28a.67.67 0 0 1 .38-.14q.36 0 .58.4l1.28 2.1a7.1 7.1 0 0 1-2.36 1.36q-1.36.46-2.8.46-2.54 0-3.92-1.42-1.36-1.44-1.36-4.04v-11.88H91.6a.93.93 0 0 1-.62-.22q-.26-.24-.26-.7v-1.74l3.3-.48.94-5.9q.1-.34.34-.54.24-.22.64-.22h2.2v6.7h14.24zm.88-26.66q0 .58-.24 1.1a3 3 0 0 1-.62.9q-.4.38-.94.62-.52.22-1.1.22t-1.1-.22a3.5 3.5 0 0 1-.9-.62 3.5 3.5 0 0 1-.62-.9 2.8 2.8 0 0 1-.22-1.1q0-.6.22-1.12.24-.54.62-.92.4-.4.9-.62.52-.24 1.1-.24t1.1.24q.54.22.94.62.4.38.62.92.24.52.24 1.12m18.974 10.26q-.2.26-.38.4t-.52.14-.72-.24q-.36-.24-.88-.52-.5-.3-1.22-.54t-1.8-.24q-1.4 0-2.46.5a4.8 4.8 0 0 0-1.76 1.44q-.7.92-1.06 2.26-.34 1.32-.34 2.98 0 1.72.38 3.06.381 1.34 1.08 2.26a4.8 4.8 0 0 0 1.72 1.4q1.02.48 2.28.48 1.24 0 2.02-.3t1.3-.66.88-.66q.38-.3.8-.3.52 0 .8.4l1.22 1.58a8 8 0 0 1-1.64 1.52q-.9.62-1.9 1.02a10 10 0 0 1-2.08.54q-1.08.18-2.18.18a9.1 9.1 0 0 1-3.56-.7 8.6 8.6 0 0 1-2.88-2.06q-1.22-1.36-1.94-3.3-.7-1.96-.7-4.46 0-2.26.64-4.18.64-1.94 1.86-3.34 1.24-1.4 3.06-2.18 1.821-.8 4.2-.8 2.22 0 3.9.72a9.4 9.4 0 0 1 3.02 2.04zm53.029-12.4-8.96 28.8h-4.22l-6.76-20.68q-.12-.34-.24-.74a32 32 0 0 1-.2-.86q-.1.46-.22.86a8 8 0 0 1-.22.74l-6.82 20.68h-4.22l-8.96-28.8h3.92q.6 0 1 .3.42.28.56.78l5.4 18.46q.16.6.3 1.3t.28 1.46q.141-.76.3-1.46.18-.72.38-1.3l6.18-18.46q.14-.4.56-.74a1.54 1.54 0 0 1 1-.34h1.36q.62 0 1 .32.38.3.58.76l6.16 18.46q.201.58.36 1.26.18.66.32 1.4.14-.74.26-1.4.141-.68.3-1.26l5.38-18.46q.12-.44.54-.76.441-.32 1.02-.32zm14.134 16.3a6 6 0 0 0-.32-2 4.5 4.5 0 0 0-.9-1.62q-.6-.7-1.5-1.08-.879-.4-2.04-.4-2.34 0-3.68 1.34t-1.7 3.76zm-10.26 2.64q.081 1.74.54 3.02.46 1.26 1.22 2.1.78.84 1.84 1.26 1.08.4 2.4.4 1.26 0 2.18-.28.92-.3 1.6-.64.68-.36 1.16-.64.48-.3.88-.3.52 0 .8.4l1.22 1.58a7.7 7.7 0 0 1-1.72 1.52q-.96.62-2.04 1.02-1.08.38-2.22.54-1.14.18-2.22.18-2.12 0-3.94-.7a9 9 0 0 1-3.14-2.1q-1.32-1.38-2.08-3.42-.74-2.04-.74-4.7 0-2.12.66-3.96.681-1.84 1.92-3.2a9 9 0 0 1 3.04-2.14q1.8-.8 4.06-.8 1.881 0 3.48.62a7.5 7.5 0 0 1 2.76 1.78q1.161 1.18 1.8 2.9.66 1.7.66 3.88 0 1-.22 1.34t-.8.34zm22.51-19.74V154h-4.3v-29.6zm9.688 0V154h-4.3v-29.6zm9.327 11.9q.66-.68 1.36-1.22.72-.56 1.52-.96a8 8 0 0 1 1.7-.62q.9-.22 1.96-.22 1.68 0 2.94.56 1.28.56 2.14 1.58.88 1.02 1.32 2.46.44 1.42.44 3.14V154h-4.28v-12.98q0-2.06-.96-3.2-.939-1.14-2.88-1.14-1.44 0-2.68.66-1.22.66-2.3 1.8V154h-4.3v-20.4h2.6q.88 0 1.12.82zm31.782 5.2a6 6 0 0 0-.32-2 4.5 4.5 0 0 0-.9-1.62q-.6-.7-1.5-1.08-.879-.4-2.04-.4-2.34 0-3.68 1.34t-1.7 3.76zm-10.26 2.64q.081 1.74.54 3.02.46 1.26 1.22 2.1.78.84 1.84 1.26 1.08.4 2.4.4 1.26 0 2.18-.28.92-.3 1.6-.64.68-.36 1.16-.64.48-.3.88-.3.52 0 .8.4l1.22 1.58a7.7 7.7 0 0 1-1.72 1.52q-.96.62-2.04 1.02-1.08.38-2.22.54-1.14.18-2.22.18-2.12 0-3.94-.7a9 9 0 0 1-3.14-2.1q-1.32-1.38-2.08-3.42-.74-2.04-.74-4.7 0-2.12.66-3.96.681-1.84 1.92-3.2a9 9 0 0 1 3.04-2.14q1.8-.8 4.06-.8 1.881 0 3.48.62a7.5 7.5 0 0 1 2.76 1.78q1.161 1.18 1.8 2.9.66 1.7.66 3.88 0 1-.22 1.34t-.8.34zm30.31-6.84q-.159.28-.36.4t-.5.12q-.34 0-.74-.2-.4-.22-.94-.48a7.4 7.4 0 0 0-1.28-.46q-.72-.22-1.7-.22-.8 0-1.46.2-.64.18-1.1.54-.44.34-.68.82-.24.46-.24 1 0 .72.44 1.2t1.16.84q.72.34 1.64.62t1.88.6 1.88.74 1.64 1.04q.72.6 1.16 1.48.44.86.44 2.1 0 1.44-.52 2.66a6 6 0 0 1-1.52 2.12q-1 .9-2.5 1.4-1.48.5-3.4.5-1.06 0-2.06-.2-.98-.18-1.88-.5a11 11 0 0 1-1.66-.8 9 9 0 0 1-1.36-1l1-1.64q.18-.3.44-.46.28-.18.68-.18.42 0 .82.28.42.26.96.58.56.32 1.34.6.78.26 1.94.26.96 0 1.66-.22.7-.24 1.16-.64a2.55 2.55 0 0 0 .68-.9q.22-.52.22-1.1 0-.78-.44-1.28t-1.18-.86q-.72-.36-1.66-.64a78 78 0 0 1-1.88-.6 21 21 0 0 1-1.9-.74 7 7 0 0 1-1.66-1.06 5.1 5.1 0 0 1-1.16-1.58q-.44-.94-.44-2.28 0-1.22.48-2.32a5.8 5.8 0 0 1 1.44-1.94q.96-.84 2.34-1.32 1.4-.5 3.22-.5 2.06 0 3.74.66t2.82 1.8zm17.461 0q-.159.28-.36.4t-.5.12q-.34 0-.74-.2-.4-.22-.94-.48a7.4 7.4 0 0 0-1.28-.46q-.72-.22-1.7-.22-.8 0-1.46.2-.64.18-1.1.54-.44.34-.68.82-.24.46-.24 1 0 .72.44 1.2t1.16.84q.72.34 1.64.62t1.88.6 1.88.74 1.64 1.04q.72.6 1.16 1.48.44.86.44 2.1 0 1.44-.52 2.66a6 6 0 0 1-1.52 2.12q-1 .9-2.5 1.4-1.48.5-3.4.5-1.06 0-2.06-.2-.98-.18-1.88-.5a11 11 0 0 1-1.66-.8 9 9 0 0 1-1.36-1l1-1.64q.18-.3.44-.46.28-.18.68-.18.42 0 .82.28.42.26.96.58.56.32 1.34.6.78.26 1.94.26.96 0 1.66-.22.7-.24 1.16-.64a2.55 2.55 0 0 0 .68-.9q.22-.52.22-1.1 0-.78-.44-1.28t-1.18-.86q-.72-.36-1.66-.64a78 78 0 0 1-1.88-.6 21 21 0 0 1-1.9-.74 7 7 0 0 1-1.66-1.06 5.1 5.1 0 0 1-1.16-1.58q-.44-.94-.44-2.28 0-1.22.48-2.32a5.8 5.8 0 0 1 1.44-1.94q.96-.84 2.34-1.32 1.4-.5 3.22-.5 2.06 0 3.74.66t2.82 1.8z" fill="#4F1964"/>
  <defs>
    <linearGradient id="a" x1="165.803" y1="57.516" x2="219.079" y2="99.231" gradientUnits="userSpaceOnUse">
      <stop offset=".18" stop-color="#805AA0"/>
      <stop offset=".214" stop-color="#7A77A7"/>
      <stop offset="1" stop-color="#66AAAF"/>
    </linearGradient>
    <linearGradient id="b" x1="169.535" y1="62.165" x2="174.301" y2="89.28" gradientUnits="userSpaceOnUse">
      <stop stop-color="#6AB7A4"/>
      <stop offset=".18" stop-color="#A7805D"/>
      <stop offset=".55" stop-color="#A55731"/>
      <stop offset="1" stop-color="#C34230"/>
    </linearGradient>
    <linearGradient id="c" x1="176.901" y1="79.198" x2="161.258" y2="28.812" gradientUnits="userSpaceOnUse">
      <stop stop-color="#AFAC79"/>
      <stop offset="1" stop-color="#4F1964"/>
    </linearGradient>
  </defs>
</svg>
