<svg width="369" height="42" viewBox="0 0 369 42" fill="none" xmlns="http://www.w3.org/2000/svg">
  <path d="M20.06 24.514a21 21 0 0 0 2.113 4.034c.56.84 1.181 1.638 1.855 2.396q.54.616 1.132 1.196c5.065 4.99 12.474 7.879 20.135 7.879 1.671 0 3.354-.14 5.025-.424-2.69-6.78-12.446-12.816-20.102-15.087a21 21 0 0 1-.61 1.428c6.51 1.915 15.433 6.932 18.265 12.442-8.144.749-16.29-2.089-21.58-7.434a20 20 0 0 1-1.133-1.23 21 21 0 0 1-1.46-1.927 19.6 19.6 0 0 1-1.873-3.522q-.894.097-1.767.25" fill="url(#a)"/>
  <path d="M0 39.595a30 30 0 0 0 5.025.423c6.472 0 15.282-4.25 20.135-7.9q-.584-.57-1.125-1.172c-5.174 3.91-14.64 8.068-21.588 7.431C6.373 30.742 15.32 25.601 25.16 25.601c1.516 0 3.012.122 4.468.359q.349-.716.639-1.446a30 30 0 0 0-5.107-.435c-11.307 0-21.517 6.34-25.16 15.516" fill="url(#b)"/>
  <path d="M21.902 24.25c-1.333-5.827-.854-14.96 3.259-19.83 5.696 6.752 6.38 16.012 1.46 23.367a21 21 0 0 1-1.46 1.927c.36.423.733.834 1.132 1.23a22 22 0 0 0 1.855-2.396c5.653-8.454 4.398-19.258-2.987-26.567-5.456 5.4-6.55 15.666-4.994 22.527a37 37 0 0 1 1.735-.258" fill="url(#c)"/>
  <path d="M85.471 21.692q1.36 0 2.388-.35 1.046-.348 1.727-.975.696-.645 1.046-1.552.348-.907.348-2.022 0-1.099-.349-1.97a3.75 3.75 0 0 0-1.01-1.482q-.681-.61-1.727-.924-1.028-.332-2.423-.332h-3.73v9.607zm0-12.797q2.459 0 4.254.575 1.814.575 2.981 1.622a6.3 6.3 0 0 1 1.761 2.493q.575 1.447.575 3.208 0 1.795-.61 3.295a7 7 0 0 1-1.813 2.563q-1.203 1.063-2.999 1.673-1.778.593-4.149.593h-3.73V34h-4.08V8.895z" fill="#4F1964"/>
  <path d="M91.622 11.763q.19-1.293.71-2.27a5.4 5.4 0 0 1 1.331-1.623 5.5 5.5 0 0 1 1.826-.989 7.1 7.1 0 0 1 2.244-.342q1.217 0 2.206.355 1.002.342 1.712.964.723.62 1.103 1.483a4.5 4.5 0 0 1 .393 1.89q0 .874-.215 1.546a3.6 3.6 0 0 1-.596 1.167 3.4 3.4 0 0 1-.939.85q-.558.341-1.255.57 1.699.495 2.549 1.585.849 1.078.849 2.713 0 1.32-.494 2.346a5.15 5.15 0 0 1-1.344 1.737 5.9 5.9 0 0 1-1.966 1.09 7.5 7.5 0 0 1-2.37.368q-1.408 0-2.435-.33a5.4 5.4 0 0 1-1.775-.963 5.6 5.6 0 0 1-1.23-1.522 10.4 10.4 0 0 1-.837-1.99l1.18-.495q.468-.203.887-.114a.85.85 0 0 1 .621.469q.202.405.457.875.253.456.646.85.405.38.99.646.594.254 1.457.254.875 0 1.522-.28.66-.291 1.09-.735.444-.456.66-1.014.215-.558.215-1.103 0-.685-.165-1.256a1.97 1.97 0 0 0-.646-.988q-.47-.405-1.344-.634-.863-.241-2.27-.241v-1.966q1.155-.012 1.94-.228.799-.228 1.268-.608.481-.393.685-.939.215-.544.215-1.191 0-.697-.215-1.23a2.4 2.4 0 0 0-.609-.888 2.4 2.4 0 0 0-.913-.545 3.7 3.7 0 0 0-1.18-.178q-.62 0-1.153.178-.52.177-.938.494-.405.318-.685.761a3.1 3.1 0 0 0-.406.951q-.177.52-.481.697-.292.178-.863.077z" fill="#C86251"/>
  <path d="M128.848 8.895V34h-4.08V22.825h-12.605V34h-4.097V8.895h4.097V19.88h12.605V8.894zm12.428 7.043q1.97 0 3.557.646 1.604.645 2.72 1.83 1.132 1.186 1.743 2.877.61 1.69.61 3.8t-.61 3.8q-.61 1.692-1.743 2.895-1.116 1.185-2.72 1.83-1.586.645-3.557.645-1.987 0-3.591-.645a7.75 7.75 0 0 1-2.72-1.83q-1.133-1.203-1.743-2.894-.61-1.69-.61-3.8t.61-3.801q.61-1.692 1.743-2.877a7.75 7.75 0 0 1 2.72-1.83q1.603-.646 3.591-.646m0 15.395q2.406 0 3.574-1.604 1.186-1.621 1.186-4.62t-1.186-4.62q-1.167-1.64-3.574-1.64-2.44 0-3.626 1.64-1.185 1.62-1.185 4.62t1.185 4.62q1.185 1.604 3.626 1.604m16.05-23.135V34h-3.749V8.198zm8.531 8.02V34h-3.748V16.217zm.628-5.37q0 .505-.209.959-.192.454-.541.801-.348.331-.819.541a2.5 2.5 0 0 1-.976.192q-.506 0-.959-.192a2.8 2.8 0 0 1-.767-.54 3 3 0 0 1-.541-.802 2.4 2.4 0 0 1-.192-.96q0-.522.192-.976.21-.453.541-.784.331-.35.767-.54.453-.21.959-.21.523 0 .976.21.471.19.819.54.35.33.541.784.209.454.209.977m14.699 8.595a.9.9 0 0 1-.314.348.83.83 0 0 1-.435.105q-.297 0-.645-.174a17 17 0 0 0-.82-.419 6.5 6.5 0 0 0-1.116-.4q-.627-.193-1.481-.193-.698 0-1.273.175a2.7 2.7 0 0 0-.959.47 2.1 2.1 0 0 0-.593.715 1.86 1.86 0 0 0-.209.872q0 .627.384 1.046.382.419 1.011.732.627.297 1.429.54.802.245 1.639.524.837.278 1.639.645a6 6 0 0 1 1.429.906q.628.523 1.012 1.29.383.75.383 1.831 0 1.255-.453 2.319a5.2 5.2 0 0 1-1.325 1.848q-.872.785-2.179 1.22-1.29.435-2.964.436a9 9 0 0 1-1.796-.174 10.6 10.6 0 0 1-1.639-.436 10 10 0 0 1-1.447-.698 8 8 0 0 1-1.185-.871l.872-1.43q.156-.261.383-.4.244-.158.593-.158.366 0 .715.244.366.227.837.506.487.279 1.168.523.68.226 1.691.226.837 0 1.447-.191.61-.21 1.011-.558t.593-.785a2.45 2.45 0 0 0 .191-.959q0-.68-.383-1.115-.384-.435-1.029-.75-.627-.314-1.447-.558a67 67 0 0 1-1.639-.523 18 18 0 0 1-1.656-.645 6 6 0 0 1-1.447-.924 4.5 4.5 0 0 1-1.011-1.377q-.384-.82-.384-1.988 0-1.064.419-2.022.435-.96 1.255-1.691.837-.733 2.04-1.15 1.22-.437 2.807-.437 1.796 0 3.26.576 1.465.575 2.458 1.569zM203.047 34h-3.748V19.164h-8.665v10.094q0 .96.471 1.464.47.506 1.255.506.436 0 .75-.105.314-.121.54-.244.227-.14.384-.244a.6.6 0 0 1 .331-.122q.314 0 .506.349l1.116 1.83a6.2 6.2 0 0 1-2.058 1.186q-1.186.4-2.44.4-2.215 0-3.417-1.237-1.186-1.255-1.186-3.521V19.164h-1.953a.8.8 0 0 1-.54-.192q-.227-.21-.227-.61v-1.517l2.877-.418.819-5.143a.94.94 0 0 1 .297-.471q.209-.192.558-.192h1.917v5.84h12.413zm.767-23.24q0 .506-.209.96a2.6 2.6 0 0 1-.54.784q-.35.33-.82.54a2.4 2.4 0 0 1-.959.192q-.505 0-.958-.192a3 3 0 0 1-.785-.54 3 3 0 0 1-.54-.785 2.4 2.4 0 0 1-.192-.958q0-.524.192-.977.208-.47.54-.802.349-.348.785-.54.453-.21.958-.21.507 0 .959.21.47.192.82.54.348.331.54.802.21.454.209.976m16.54 8.944a2 2 0 0 1-.331.349q-.157.122-.453.122t-.628-.21a10 10 0 0 0-.767-.453 5.4 5.4 0 0 0-1.063-.47q-.629-.21-1.569-.21-1.221 0-2.145.436a4.2 4.2 0 0 0-1.534 1.255q-.61.803-.924 1.97-.296 1.152-.296 2.598 0 1.5.331 2.668.331 1.167.941 1.97.628.801 1.5 1.22.888.418 1.987.418 1.081 0 1.761-.261a5.4 5.4 0 0 0 1.133-.575q.453-.314.767-.576a1.1 1.1 0 0 1 .698-.261q.453 0 .697.349l1.063 1.377q-.645.785-1.429 1.325a8.4 8.4 0 0 1-1.656.889 8.7 8.7 0 0 1-1.814.47q-.941.157-1.9.157a7.9 7.9 0 0 1-3.103-.61 7.5 7.5 0 0 1-2.511-1.795q-1.063-1.186-1.691-2.877-.61-1.709-.61-3.888 0-1.97.558-3.643.558-1.692 1.621-2.912a7.4 7.4 0 0 1 2.668-1.9q1.586-.698 3.661-.698 1.935 0 3.4.628a8.2 8.2 0 0 1 2.632 1.778zM266.58 8.895 258.769 34h-3.678l-5.893-18.027q-.105-.296-.209-.645a28 28 0 0 1-.175-.75q-.087.402-.191.75a7 7 0 0 1-.192.645L242.486 34h-3.679l-7.81-25.105h3.417q.523 0 .872.262.365.243.488.68l4.707 16.091q.14.523.262 1.133.121.61.244 1.273.121-.663.261-1.273.157-.627.331-1.133l5.387-16.091q.123-.35.489-.646a1.34 1.34 0 0 1 .871-.296h1.186q.54 0 .872.279.33.261.505.663l5.37 16.091q.174.505.314 1.098.156.576.279 1.22.121-.644.226-1.22.123-.592.262-1.098l4.689-16.091a1.24 1.24 0 0 1 .471-.663q.384-.279.889-.279zm12.32 14.209q0-.942-.279-1.744a3.9 3.9 0 0 0-.784-1.412 3.5 3.5 0 0 0-1.308-.941q-.767-.35-1.778-.349-2.04 0-3.208 1.168t-1.482 3.278zm-8.943 2.301q.07 1.517.47 2.633.402 1.098 1.064 1.83.68.732 1.604 1.099.941.348 2.092.348 1.099 0 1.9-.244.803-.261 1.395-.558.593-.314 1.011-.558.419-.261.767-.261.453 0 .698.349l1.063 1.377a6.8 6.8 0 0 1-1.499 1.325 9 9 0 0 1-1.779.889 10 10 0 0 1-1.935.47q-.993.157-1.935.157-1.848 0-3.434-.61a7.8 7.8 0 0 1-2.738-1.83q-1.15-1.203-1.813-2.982-.645-1.777-.645-4.096 0-1.848.576-3.452.593-1.605 1.673-2.79a7.9 7.9 0 0 1 2.65-1.865q1.57-.698 3.539-.698 1.64 0 3.034.54 1.395.525 2.406 1.552 1.011 1.03 1.569 2.528.575 1.482.575 3.383 0 .87-.192 1.168-.192.296-.697.296zm19.622-17.207V34h-3.749V8.198zm8.444 0V34h-3.748V8.198zm8.131 10.373q.575-.593 1.185-1.064a8 8 0 0 1 1.325-.836 7 7 0 0 1 1.482-.54 7.2 7.2 0 0 1 1.709-.193q1.464 0 2.563.489a5.05 5.05 0 0 1 1.865 1.377q.767.889 1.151 2.144.383 1.238.383 2.737V34h-3.731V22.685q0-1.795-.836-2.79-.82-.993-2.511-.993-1.255 0-2.336.575-1.063.576-2.005 1.57V34h-3.748V16.217h2.266q.768 0 .976.715zm27.704 4.533q0-.942-.279-1.744a3.9 3.9 0 0 0-.784-1.412 3.5 3.5 0 0 0-1.308-.941q-.767-.35-1.778-.349-2.04 0-3.208 1.168t-1.482 3.278zm-8.943 2.301q.07 1.517.47 2.633.401 1.098 1.064 1.83.68.732 1.604 1.099.941.348 2.092.348 1.098 0 1.9-.244.803-.261 1.395-.558.592-.314 1.011-.558.419-.261.767-.261.454 0 .697.349l1.064 1.377a6.8 6.8 0 0 1-1.5 1.325q-.836.54-1.778.889a10 10 0 0 1-1.935.47q-.993.157-1.935.157-1.848 0-3.435-.61a7.8 7.8 0 0 1-2.737-1.83q-1.15-1.203-1.813-2.982-.645-1.777-.645-4.096 0-1.848.575-3.452.593-1.605 1.674-2.79a7.9 7.9 0 0 1 2.65-1.865q1.57-.698 3.539-.698 1.64 0 3.034.54a6.6 6.6 0 0 1 2.406 1.552q1.011 1.03 1.569 2.528.575 1.482.575 3.383 0 .87-.192 1.168-.192.296-.697.296zm26.421-5.962a.93.93 0 0 1-.314.348.84.84 0 0 1-.436.105q-.297 0-.645-.174a17 17 0 0 0-.819-.419 6.5 6.5 0 0 0-1.116-.4q-.628-.193-1.482-.193-.697 0-1.273.175a2.8 2.8 0 0 0-.959.47 2.06 2.06 0 0 0-.592.715 1.85 1.85 0 0 0-.21.872q0 .627.384 1.046t1.011.732q.628.297 1.43.54.802.245 1.638.524.837.278 1.639.645a6 6 0 0 1 1.43.906q.627.523 1.011 1.29.384.75.384 1.831 0 1.255-.454 2.319a5.2 5.2 0 0 1-1.325 1.848q-.871.785-2.179 1.22-1.29.435-2.964.436a9 9 0 0 1-1.795-.174q-.855-.157-1.639-.436a10 10 0 0 1-1.447-.698 8 8 0 0 1-1.186-.871l.872-1.43q.157-.261.384-.4a1.07 1.07 0 0 1 .592-.158q.367 0 .715.244.366.227.837.506.488.279 1.168.523.68.226 1.691.226.837 0 1.447-.191.61-.21 1.011-.558t.593-.785q.192-.453.192-.959 0-.68-.384-1.115-.383-.435-1.028-.75a9 9 0 0 0-1.447-.558 65 65 0 0 1-1.639-.523 18 18 0 0 1-1.656-.645 6 6 0 0 1-1.447-.924 4.5 4.5 0 0 1-1.012-1.377q-.383-.82-.383-1.988a5 5 0 0 1 .418-2.022 5.1 5.1 0 0 1 1.256-1.691q.836-.733 2.039-1.15 1.221-.437 2.807-.437 1.796 0 3.26.576 1.465.575 2.459 1.569zm15.22 0a.93.93 0 0 1-.313.348.84.84 0 0 1-.436.105q-.297 0-.645-.174a17 17 0 0 0-.82-.419 6.5 6.5 0 0 0-1.116-.4q-.627-.193-1.481-.193-.698 0-1.273.175a2.7 2.7 0 0 0-.959.47 2.1 2.1 0 0 0-.593.715 1.86 1.86 0 0 0-.209.872q0 .627.384 1.046.383.419 1.011.732.628.297 1.429.54.802.245 1.639.524.837.278 1.639.645a6 6 0 0 1 1.43.906q.627.523 1.011 1.29.383.75.383 1.831 0 1.255-.453 2.319a5.2 5.2 0 0 1-1.325 1.848q-.872.785-2.179 1.22-1.29.435-2.964.436a9 9 0 0 1-1.796-.174 10.6 10.6 0 0 1-1.639-.436 10 10 0 0 1-1.447-.698 8 8 0 0 1-1.185-.871l.872-1.43q.156-.261.383-.4.244-.158.593-.158.366 0 .715.244.366.227.837.506.487.279 1.168.523.68.226 1.691.226.837 0 1.447-.191.61-.21 1.011-.558t.593-.785q.191-.453.191-.959 0-.68-.383-1.115-.384-.435-1.029-.75-.627-.314-1.447-.558a67 67 0 0 1-1.639-.523 18 18 0 0 1-1.656-.645 6 6 0 0 1-1.447-.924 4.5 4.5 0 0 1-1.011-1.377q-.383-.82-.383-1.988a5 5 0 0 1 .418-2.022 5.1 5.1 0 0 1 1.255-1.691q.837-.733 2.04-1.15 1.22-.437 2.807-.437 1.796 0 3.26.576 1.464.575 2.458 1.569z" fill="#4F1964"/>
  <defs>
    <linearGradient id="a" x1="20.226" y1="21.007" x2="44.927" y2="41.427" gradientUnits="userSpaceOnUse">
      <stop offset=".18" stop-color="#805AA0"/>
      <stop offset=".214" stop-color="#7A77A7"/>
      <stop offset="1" stop-color="#66AAAF"/>
    </linearGradient>
    <linearGradient id="b" x1="22.032" y1="23.138" x2="24.107" y2="35.603" gradientUnits="userSpaceOnUse">
      <stop stop-color="#6AB7A4"/>
      <stop offset=".18" stop-color="#A7805D"/>
      <stop offset=".55" stop-color="#A55731"/>
      <stop offset="1" stop-color="#C34230"/>
    </linearGradient>
    <linearGradient id="c" x1="25.596" y1="30.944" x2="18.744" y2="7.642" gradientUnits="userSpaceOnUse">
      <stop stop-color="#AFAC79"/>
      <stop offset="1" stop-color="#4F1964"/>
    </linearGradient>
  </defs>
</svg>
