<svg width="30" height="30" viewBox="0 0 30 30" fill="none" xmlns="http://www.w3.org/2000/svg"><path d="M27.5 15c0-6.887-5.613-12.5-12.5-12.5S2.5 8.113 2.5 15c0 3.625 1.563 6.887 4.037 9.175 0 .012 0 .012-.012.025.125.125.275.225.4.338.075.062.138.125.213.174.224.188.474.363.712.538.088.063.162.113.25.175q.357.244.75.45c.088.05.188.113.275.163q.375.206.787.375c.1.05.2.1.3.137q.413.169.825.3c.1.037.2.075.3.1.3.088.6.163.9.238.088.024.175.05.275.062.35.075.7.125 1.063.163.05 0 .1.012.15.024.425.038.85.063 1.275.063s.85-.025 1.262-.062c.05 0 .1-.013.15-.025a10 10 0 0 0 1.063-.163c.087-.012.175-.05.275-.062.3-.075.613-.138.9-.238.1-.037.2-.075.3-.1.275-.1.563-.187.825-.3.1-.038.2-.088.3-.137q.393-.17.788-.375c.1-.05.187-.113.274-.163.25-.15.5-.288.75-.45.088-.05.163-.113.25-.175.25-.175.488-.35.713-.538.075-.062.137-.125.212-.174.138-.113.275-.226.4-.338 0-.012 0-.012-.012-.025 2.488-2.288 4.05-5.55 4.05-9.175m-6.325 6.212c-3.387-2.274-8.937-2.274-12.35 0-.55.363-1 .788-1.375 1.25A10.6 10.6 0 0 1 4.375 15C4.375 9.137 9.137 4.375 15 4.375S25.625 9.137 25.625 15a10.6 10.6 0 0 1-3.075 7.462 5.8 5.8 0 0 0-1.375-1.25" fill="#28514F"/><path d="M15 8.663a4.69 4.69 0 0 0-4.687 4.687c0 2.538 1.987 4.6 4.624 4.675h.225a4.68 4.68 0 0 0 4.525-4.675A4.69 4.69 0 0 0 15 8.663" fill="#28514F"/></svg>