<svg width="37" height="19" viewBox="0 0 37 19" fill="none" xmlns="http://www.w3.org/2000/svg"><mask id="a" style="mask-type:luminance" maskUnits="userSpaceOnUse" x="0" y="0" width="37" height="19"><path d="M0 0h37v19H0z" fill="#fff"/></mask><g mask="url(#a)"><mask id="b" style="mask-type:luminance" maskUnits="userSpaceOnUse" x="0" y="0" width="37" height="19"><path d="m26.587 16.457.16.76 6.385-1.758zm-1.423-2.943.438.64 5.229-4.079zm-2.436-2.174.65.424 3.276-5.778zm-3.078-1.07.761.14.826-6.596zm-3.252.193.757-.162-1.751-6.412zm-2.93 1.428.637-.44-4.06-5.252zm-2.164 2.446.421-.651-5.753-3.291zm-1.067 3.092.141-.764-6.569-.83zm16.612 1.11v.077c.422.15.845.212 1.267.264.857.145 1.696-.07 2.537-.177.847-.063 1.692.216 2.535.242 1.284.109 2.54.031 3.804-.329v-.077c-.845-.25-1.69-.34-2.536-.377-.85-.003-1.695.052-2.536.203a5.5 5.5 0 0 1-1.268.087c-.422-.023-.845-.148-1.268-.199a6.6 6.6 0 0 0-2.535.286m-.65-3.204.03.073c.447-.025.862-.13 1.272-.244.847-.196 1.54-.716 2.275-1.139.76-.383 1.646-.45 2.435-.75 1.228-.393 2.36-.949 3.39-1.766l-.03-.072c-.876.094-1.691.336-2.486.627-.786.323-1.547.7-2.266 1.162-.363.229-.738.43-1.138.568-.4.14-.838.188-1.247.303a6.6 6.6 0 0 0-2.234 1.238m-1.82-2.709.055.055c.403-.195.747-.45 1.082-.714.708-.506 1.15-1.254 1.668-1.926.556-.646 1.35-1.05 1.964-1.63.984-.835 1.818-1.783 2.458-2.934l-.054-.055c-.774.424-1.435.961-2.058 1.535a14 14 0 0 0-1.651 1.944 5.5 5.5 0 0 1-.835.963c-.316.283-.702.495-1.037.76a6.6 6.6 0 0 0-1.592 2.002m-2.714-1.804.072.03c.298-.335.518-.703.727-1.076.461-.739.585-1.6.808-2.42.267-.81.846-1.488 1.193-2.26.591-1.15 1-2.346 1.153-3.656l-.071-.03c-.554.689-.96 1.44-1.317 2.21-.328.786-.6 1.592-.784 2.43-.095.42-.219.828-.405 1.21-.183.383-.46.728-.668 1.1a6.7 6.7 0 0 0-.708 2.462M18.47 10.2h.078c.148-.424.211-.849.262-1.273.145-.86-.07-1.703-.176-2.547-.062-.851.215-1.7.24-2.547.11-1.29.032-2.552-.326-3.82h-.078c-.249.849-.337 1.698-.374 2.546-.003.854.052 1.703.201 2.547.072.425.114.85.087 1.274-.023.424-.147.849-.198 1.273a6.7 6.7 0 0 0 .284 2.547m-3.189.652.072-.03c-.025-.449-.129-.865-.243-1.277-.194-.85-.713-1.546-1.133-2.285-.383-.763-.45-1.653-.748-2.446-.391-1.232-.944-2.37-1.758-3.404l-.072.03c.094.88.335 1.699.625 2.497.322.79.697 1.553 1.156 2.276.228.365.429.74.566 1.143.14.401.187.84.302 1.252a6.7 6.7 0 0 0 1.233 2.244m-2.697 1.829.054-.055c-.194-.406-.448-.75-.71-1.088-.504-.71-1.249-1.154-1.919-1.675-.643-.558-1.044-1.355-1.622-1.972-.831-.989-1.775-1.826-2.921-2.47l-.055.056c.421.777.956 1.44 1.528 2.066A14 14 0 0 0 8.875 9.2c.35.25.678.52.958.84.282.316.493.704.756 1.04a6.6 6.6 0 0 0 1.995 1.6m-1.796 2.726.03-.072c-.335-.3-.7-.521-1.072-.731-.736-.464-1.593-.587-2.41-.811-.807-.268-1.481-.85-2.25-1.198-1.145-.595-2.336-1.006-3.64-1.159l-.03.072c.686.556 1.433.963 2.2 1.322.783.33 1.586.603 2.42.788.418.096.824.219 1.205.406.38.184.724.462 1.095.672a6.6 6.6 0 0 0 2.452.71m-.62 3.208a6.6 6.6 0 0 1-2.537.285c-.423-.05-.845-.175-1.268-.199a5.5 5.5 0 0 0-1.268.088c-.84.15-1.686.205-2.535.202-.846-.037-1.691-.126-2.537-.376v-.078c1.264-.36 2.52-.437 3.804-.328.844.026 1.689.304 2.536.242.84-.108 1.68-.323 2.536-.177.423.05.846.114 1.268.263z" fill="#fff"/></mask><g mask="url(#b)"><mask id="c" style="mask-type:luminance" maskUnits="userSpaceOnUse" x="0" y="0" width="37" height="19"><path d="m26.587 16.457.16.76 6.385-1.759zm-1.423-2.944.438.64 5.229-4.078zm-2.436-2.173.65.424 3.276-5.778zm-3.078-1.071.761.141.826-6.597zm-3.252.193.757-.161-1.751-6.413zm-2.93 1.429.637-.44-4.06-5.252zm-2.164 2.446.421-.652-5.753-3.29zm-1.067 3.091.141-.764-6.569-.829zm16.612 1.11v.078c.422.149.845.212 1.267.264.857.145 1.696-.07 2.537-.178.847-.062 1.692.216 2.535.242 1.284.11 2.54.032 3.804-.328v-.078c-.845-.25-1.69-.34-2.536-.376-.85-.003-1.695.052-2.536.202a5.5 5.5 0 0 1-1.268.088c-.422-.024-.845-.149-1.268-.2a6.6 6.6 0 0 0-2.535.286m-.65-3.203.03.072c.447-.025.862-.129 1.272-.244.847-.195 1.54-.716 2.275-1.138.76-.384 1.646-.451 2.435-.751 1.228-.393 2.36-.948 3.39-1.766l-.03-.072c-.876.094-1.691.337-2.486.627-.786.324-1.547.7-2.266 1.162-.363.23-.738.43-1.138.568-.4.141-.838.188-1.247.304a6.6 6.6 0 0 0-2.234 1.238m-1.82-2.71.055.055c.403-.194.747-.45 1.082-.713.708-.506 1.15-1.254 1.668-1.927.556-.646 1.35-1.049 1.964-1.63.984-.834 1.818-1.782 2.458-2.933l-.054-.055c-.774.423-1.435.96-2.058 1.535-.604.6-1.163 1.24-1.651 1.944a5.5 5.5 0 0 1-.835.962c-.316.284-.702.495-1.037.76a6.7 6.7 0 0 0-1.592 2.003m-2.714-1.803.072.03c.298-.335.518-.703.727-1.076.461-.74.585-1.6.808-2.42.267-.811.846-1.488 1.193-2.261.591-1.15 1-2.346 1.153-3.656l-.071-.03c-.554.69-.96 1.44-1.317 2.21-.328.787-.6 1.593-.784 2.43-.095.42-.219.828-.405 1.21-.183.384-.46.728-.668 1.1a6.7 6.7 0 0 0-.708 2.463m-3.195-.623h.078c.148-.425.211-.85.262-1.274.145-.86-.07-1.703-.176-2.547-.062-.851.215-1.7.24-2.547.11-1.289.032-2.551-.326-3.82h-.078c-.249.85-.337 1.698-.374 2.547-.003.853.052 1.703.201 2.547.072.425.114.849.087 1.273-.023.425-.147.85-.198 1.274a6.7 6.7 0 0 0 .284 2.547m-3.189.652.072-.03c-.025-.45-.129-.866-.243-1.277-.194-.851-.713-1.547-1.133-2.286-.383-.762-.45-1.653-.748-2.445-.391-1.233-.944-2.37-1.758-3.404l-.072.03c.094.88.335 1.698.625 2.497.322.79.697 1.553 1.156 2.275.228.365.429.74.566 1.143.14.402.187.841.302 1.253a6.7 6.7 0 0 0 1.233 2.244m-2.697 1.828.054-.055c-.194-.405-.448-.75-.71-1.087-.504-.711-1.249-1.155-1.919-1.676-.643-.558-1.044-1.354-1.622-1.972-.831-.988-1.775-1.826-2.921-2.469l-.055.055c.421.777.956 1.44 1.528 2.067A14 14 0 0 0 8.875 9.2c.35.25.678.52.958.839.282.316.493.705.756 1.04a6.6 6.6 0 0 0 1.995 1.6m-1.796 2.726.03-.072c-.335-.3-.7-.52-1.072-.73-.736-.464-1.593-.588-2.41-.812-.807-.268-1.481-.85-2.25-1.198C3.94 12 2.75 11.588 1.445 11.435l-.03.072c.686.556 1.433.963 2.2 1.322.783.33 1.586.603 2.42.787.418.096.824.22 1.205.407.38.184.724.462 1.095.671a6.6 6.6 0 0 0 2.452.711m-.62 3.209a6.6 6.6 0 0 1-2.537.285c-.423-.05-.845-.175-1.268-.2a5.5 5.5 0 0 0-1.268.088c-.84.15-1.686.206-2.535.203-.846-.037-1.691-.126-2.537-.376v-.078c1.264-.36 2.52-.438 3.804-.329.844.026 1.689.305 2.536.242.84-.107 1.68-.322 2.536-.177.423.051.846.115 1.268.264z" fill="#fff"/></mask><g mask="url(#c)"><path d="M36.942-1.354-.673.037.074 20.42l37.615-1.391z" fill="url(#d)"/></g></g></g><defs><linearGradient id="d" x1="17.803" y1="-.646" x2="18.557" y2="19.735" gradientUnits="userSpaceOnUse"><stop stop-color="#F97545"/><stop offset=".008" stop-color="#F97545"/><stop offset=".016" stop-color="#F97545"/><stop offset=".023" stop-color="#F97545"/><stop offset=".031" stop-color="#F97545"/><stop offset=".039" stop-color="#F97545"/><stop offset=".047" stop-color="#F97545"/><stop offset=".055" stop-color="#F97545"/><stop offset=".063" stop-color="#F97545"/><stop offset=".07" stop-color="#F97545"/><stop offset=".078" stop-color="#F97545"/><stop offset=".086" stop-color="#F97545"/><stop offset=".094" stop-color="#F97545"/><stop offset=".102" stop-color="#F97545"/><stop offset=".109" stop-color="#F97545"/><stop offset=".117" stop-color="#F97545"/><stop offset=".125" stop-color="#F97545"/><stop offset=".133" stop-color="#F97545"/><stop offset=".141" stop-color="#F97545"/><stop offset=".148" stop-color="#F97545"/><stop offset=".156" stop-color="#F97545"/><stop offset=".164" stop-color="#F97545"/><stop offset=".172" stop-color="#F97545"/><stop offset=".18" stop-color="#F97545"/><stop offset=".188" stop-color="#F97545"/><stop offset=".195" stop-color="#F97545"/><stop offset=".203" stop-color="#F97545"/><stop offset=".211" stop-color="#F97545"/><stop offset=".219" stop-color="#F97545"/><stop offset=".227" stop-color="#F97545"/><stop offset=".234" stop-color="#F97545"/><stop offset=".242" stop-color="#F97545"/><stop offset=".25" stop-color="#F97545"/><stop offset=".258" stop-color="#F97545"/><stop offset=".266" stop-color="#F97545"/><stop offset=".273" stop-color="#F97545"/><stop offset=".281" stop-color="#F97545"/><stop offset=".289" stop-color="#F97545"/><stop offset=".297" stop-color="#F97545"/><stop offset=".305" stop-color="#F97545"/><stop offset=".313" stop-color="#F97545"/><stop offset=".32" stop-color="#F97545"/><stop offset=".328" stop-color="#F97545"/><stop offset=".336" stop-color="#F97545"/><stop offset=".344" stop-color="#F97545"/><stop offset=".352" stop-color="#F97545"/><stop offset=".359" stop-color="#F97545"/><stop offset=".367" stop-color="#F97545"/><stop offset=".375" stop-color="#F97545"/><stop offset=".383" stop-color="#F97545"/><stop offset=".391" stop-color="#F97545"/><stop offset=".398" stop-color="#F97545"/><stop offset=".406" stop-color="#F97545"/><stop offset=".414" stop-color="#F97545"/><stop offset=".422" stop-color="#F97545"/><stop offset=".43" stop-color="#F97545"/><stop offset=".438" stop-color="#F97545"/><stop offset=".445" stop-color="#F97545"/><stop offset=".453" stop-color="#F97545"/><stop offset=".461" stop-color="#F97545"/><stop offset=".469" stop-color="#F97545"/><stop offset=".477" stop-color="#F97545"/><stop offset=".484" stop-color="#F97545"/><stop offset=".492" stop-color="#F97545"/><stop offset=".5" stop-color="#F97545"/><stop offset=".508" stop-color="#F97545"/><stop offset=".516" stop-color="#F97545"/><stop offset=".523" stop-color="#F97545"/><stop offset=".531" stop-color="#F97545"/><stop offset=".539" stop-color="#F97545"/><stop offset=".547" stop-color="#F97545"/><stop offset=".555" stop-color="#F97545"/><stop offset=".563" stop-color="#F97545"/><stop offset=".57" stop-color="#F97545"/><stop offset=".578" stop-color="#F97545"/><stop offset=".586" stop-color="#F97545"/><stop offset=".594" stop-color="#F97545"/><stop offset=".602" stop-color="#F97545"/><stop offset=".609" stop-color="#F97545"/><stop offset=".617" stop-color="#F97545"/><stop offset=".625" stop-color="#F97545"/><stop offset=".633" stop-color="#F97545"/><stop offset=".641" stop-color="#F97545"/><stop offset=".648" stop-color="#F97545"/><stop offset=".656" stop-color="#F97545"/><stop offset=".664" stop-color="#F97545"/><stop offset=".672" stop-color="#F97545"/><stop offset=".68" stop-color="#F97545"/><stop offset=".688" stop-color="#F97545"/><stop offset=".695" stop-color="#F97545"/><stop offset=".703" stop-color="#F97545"/><stop offset=".711" stop-color="#F97545"/><stop offset=".719" stop-color="#F97545"/><stop offset=".727" stop-color="#F97545"/><stop offset=".734" stop-color="#F97545"/><stop offset=".742" stop-color="#F97545"/><stop offset=".75" stop-color="#F97545"/><stop offset=".758" stop-color="#F97545"/><stop offset=".766" stop-color="#F97545"/><stop offset=".773" stop-color="#F97545"/><stop offset=".781" stop-color="#F97545"/><stop offset=".789" stop-color="#F97545"/><stop offset=".797" stop-color="#F97545"/><stop offset=".805" stop-color="#F97545"/><stop offset=".813" stop-color="#F97545"/><stop offset=".82" stop-color="#F97545"/><stop offset=".828" stop-color="#F97545"/><stop offset=".836" stop-color="#F97545"/><stop offset=".844" stop-color="#F97545"/><stop offset=".852" stop-color="#F97545"/><stop offset=".859" stop-color="#F97545"/><stop offset=".867" stop-color="#F97545"/><stop offset=".875" stop-color="#F97545"/><stop offset=".883" stop-color="#F97545"/><stop offset=".891" stop-color="#F97545"/><stop offset=".898" stop-color="#F97545"/><stop offset=".906" stop-color="#F97545"/><stop offset=".914" stop-color="#F97545"/><stop offset=".922" stop-color="#F97545"/><stop offset=".93" stop-color="#F97545"/><stop offset=".938" stop-color="#F97545"/><stop offset=".945" stop-color="#F97545"/><stop offset=".953" stop-color="#F97545"/><stop offset=".961" stop-color="#F97545"/><stop offset=".969" stop-color="#F97545"/><stop offset=".977" stop-color="#F97545"/><stop offset=".984" stop-color="#F97545"/><stop offset=".992" stop-color="#F97545"/><stop offset="1" stop-color="#F97545"/></linearGradient></defs></svg>