<svg width="16" height="16" viewBox="0 0 16 16" fill="none" xmlns="http://www.w3.org/2000/svg"><path d="M8 15.166A7.173 7.173 0 0 1 .833 8 7.173 7.173 0 0 1 8 .833 7.173 7.173 0 0 1 15.166 8 7.173 7.173 0 0 1 8 15.166M8 1.833A6.174 6.174 0 0 0 1.833 8c0 3.4 2.767 6.166 6.167 6.166S14.166 11.4 14.166 8 11.4 1.833 8 1.833" fill="#fff"/><path d="M8.16 11.166A3.17 3.17 0 0 1 4.993 8 3.17 3.17 0 0 1 8.16 4.833c.767 0 1.513.28 2.086.793.207.18.227.5.047.707a.504.504 0 0 1-.706.047c-.394-.347-.9-.54-1.427-.54a2.17 2.17 0 0 0-2.167 2.166 2.17 2.17 0 0 0 2.167 2.167c.52 0 1.033-.193 1.427-.54a.504.504 0 0 1 .706.047c.18.206.16.526-.046.706a3.2 3.2 0 0 1-2.087.78" fill="#fff"/></svg>