<svg width="303" height="106" viewBox="0 0 303 106" fill="none" xmlns="http://www.w3.org/2000/svg"><path d="M131.356 31.056q1.872 0 3.288-.48 1.44-.48 2.376-1.344a5.6 5.6 0 0 0 1.44-2.136q.48-1.248.48-2.784 0-1.512-.48-2.712a5.16 5.16 0 0 0-1.392-2.04q-.936-.84-2.376-1.272-1.416-.456-3.336-.456h-5.136v13.224zm0-17.616q3.384 0 5.856.792 2.496.792 4.104 2.232a8.7 8.7 0 0 1 2.424 3.432q.792 1.992.792 4.416 0 2.472-.84 4.536a9.6 9.6 0 0 1-2.496 3.528q-1.656 1.464-4.128 2.304-2.448.816-5.712.816h-5.136V48h-5.616V13.44z" fill="#4F1964"/><path d="M143.388 14.296q.24-1.632.896-2.864a6.8 6.8 0 0 1 1.68-2.048 6.9 6.9 0 0 1 2.304-1.248 9 9 0 0 1 2.832-.432q1.536 0 2.784.448 1.264.432 2.16 1.216a5.2 5.2 0 0 1 1.392 1.872q.496 1.088.496 2.384 0 1.104-.272 1.952a4.6 4.6 0 0 1-.752 1.472 4.2 4.2 0 0 1-1.184 1.072 7.4 7.4 0 0 1-1.584.72q2.144.624 3.216 2 1.072 1.36 1.072 3.424 0 1.665-.624 2.96a6.5 6.5 0 0 1-1.696 2.192 7.5 7.5 0 0 1-2.48 1.376 9.5 9.5 0 0 1-2.992.464q-1.776 0-3.072-.416-1.296-.432-2.24-1.216a7 7 0 0 1-1.552-1.92 13 13 0 0 1-1.056-2.512l1.488-.624q.592-.256 1.12-.144.544.112.784.592.257.512.576 1.104.32.576.816 1.072.512.48 1.248.816.752.32 1.84.32 1.104 0 1.92-.352a4.3 4.3 0 0 0 1.376-.928q.56-.576.832-1.28a3.9 3.9 0 0 0 .272-1.392 5.7 5.7 0 0 0-.208-1.584 2.5 2.5 0 0 0-.816-1.248q-.592-.512-1.696-.8-1.088-.304-2.864-.304v-2.48q1.457-.016 2.448-.288 1.008-.288 1.6-.768.608-.495.864-1.184.272-.688.272-1.504 0-.88-.272-1.552a3 3 0 0 0-.768-1.12 3 3 0 0 0-1.152-.688 4.7 4.7 0 0 0-1.488-.224q-.784 0-1.456.224-.656.224-1.184.624a3.7 3.7 0 0 0-.864.96 3.9 3.9 0 0 0-.512 1.2q-.224.655-.608.88-.368.224-1.088.096z" fill="#C86251"/><path d="M167.256 31.217c.343.874.792 1.727 1.343 2.545q.537.794 1.18 1.512.344.389.72.755c3.221 3.148 7.933 4.97 12.804 4.97a19.4 19.4 0 0 0 3.196-.266c-1.711-4.278-7.915-8.087-12.784-9.52q-.175.455-.388.901c4.14 1.208 9.815 4.374 11.616 7.85-5.179.473-10.36-1.317-13.724-4.69q-.378-.376-.72-.776a13 13 0 0 1-.928-1.216c-.483-.716-.88-1.46-1.191-2.222q-.569.061-1.124.157" fill="url(#a)"/><path d="M154.5 40.733c1.063.178 2.133.267 3.196.267 4.115 0 9.717-2.682 12.804-4.985q-.372-.36-.716-.74c-3.29 2.467-9.31 5.09-13.728 4.69 2.496-4.818 8.186-8.062 14.444-8.062a18 18 0 0 1 2.841.226q.222-.452.406-.912a19.3 19.3 0 0 0-3.247-.275c-7.191 0-13.684 4.001-16 9.79" fill="url(#b)"/><path d="M168.427 31.05c-.848-3.676-.543-9.438 2.072-12.511 3.623 4.26 4.058 10.103.929 14.744q-.427.633-.929 1.216.342.4.72.776.644-.718 1.18-1.512c3.595-5.334 2.797-12.151-1.9-16.763-3.469 3.407-4.164 9.885-3.175 14.214q.548-.094 1.103-.163" fill="url(#c)"/><path d="M27.26 68.2V97h-4.68V84.18H8.12V97h-4.7V68.2h4.7v12.6h14.46V68.2zm14.258 8.08q2.26 0 4.08.74 1.84.74 3.12 2.1 1.3 1.36 2 3.3t.7 4.36-.7 4.36-2 3.32q-1.28 1.36-3.12 2.1-1.82.74-4.08.74-2.28 0-4.12-.74a8.9 8.9 0 0 1-3.12-2.1q-1.3-1.38-2-3.32t-.7-4.36.7-4.36 2-3.3a8.9 8.9 0 0 1 3.12-2.1q1.84-.74 4.12-.74m0 17.66q2.76 0 4.1-1.84 1.36-1.86 1.36-5.3t-1.36-5.3q-1.34-1.88-4.1-1.88-2.8 0-4.16 1.88-1.36 1.86-1.36 5.3t1.36 5.3q1.36 1.84 4.16 1.84M59.93 67.4V97h-4.3V67.4zm9.787 9.2V97h-4.3V76.6zm.72-6.16q0 .58-.24 1.1a2.9 2.9 0 0 1-.62.92q-.4.38-.94.62-.52.22-1.12.22-.58 0-1.1-.22a3.2 3.2 0 0 1-.88-.62 3.4 3.4 0 0 1-.62-.92 2.8 2.8 0 0 1-.22-1.1q0-.6.22-1.12a3.1 3.1 0 0 1 .62-.9q.38-.4.88-.62.52-.24 1.1-.24.6 0 1.12.24.54.22.94.62.4.38.62.9.24.52.24 1.12M87.3 80.3q-.16.28-.36.4t-.5.12q-.34 0-.74-.2-.4-.22-.94-.48a7.4 7.4 0 0 0-1.28-.46q-.72-.22-1.7-.22-.8 0-1.46.2-.64.18-1.1.54-.44.34-.68.82-.24.46-.24 1 0 .72.44 1.2t1.16.84q.72.34 1.64.62t1.88.6 1.88.74 1.64 1.04q.72.6 1.16 1.48.44.86.44 2.1 0 1.44-.52 2.66a6 6 0 0 1-1.52 2.12q-1 .9-2.5 1.4-1.48.5-3.4.5-1.06 0-2.06-.2-.98-.18-1.88-.5a11 11 0 0 1-1.66-.8 9 9 0 0 1-1.36-1l1-1.64q.18-.3.44-.46.28-.18.68-.18.42 0 .82.28.42.26.96.58.56.32 1.34.6.78.26 1.94.26.96 0 1.66-.22.7-.24 1.16-.64t.68-.9q.22-.52.22-1.1 0-.78-.44-1.28t-1.18-.86q-.72-.36-1.66-.64a75 75 0 0 1-1.88-.6q-.96-.32-1.9-.74a7 7 0 0 1-1.66-1.06 5.1 5.1 0 0 1-1.16-1.58q-.44-.94-.44-2.28 0-1.22.48-2.32a5.8 5.8 0 0 1 1.44-1.94q.96-.84 2.34-1.32 1.4-.5 3.22-.5 2.06 0 3.74.66t2.82 1.8zM112.381 97h-4.3V79.98h-9.94v11.58q0 1.1.54 1.68t1.44.58q.5 0 .86-.12.36-.14.62-.28.26-.16.44-.28a.67.67 0 0 1 .38-.14q.36 0 .58.4l1.28 2.1a7.1 7.1 0 0 1-2.36 1.36q-1.36.46-2.8.46-2.54 0-3.92-1.42-1.36-1.44-1.36-4.04V79.98H91.6a.93.93 0 0 1-.62-.22q-.26-.24-.26-.7v-1.74l3.3-.48.94-5.9q.1-.34.34-.54.24-.22.64-.22h2.2v6.7h14.24zm.88-26.66q0 .58-.24 1.1a2.9 2.9 0 0 1-.62.9q-.4.38-.94.62-.52.22-1.1.22t-1.1-.22a3.5 3.5 0 0 1-.9-.62 3.5 3.5 0 0 1-.62-.9 2.8 2.8 0 0 1-.22-1.1q0-.6.22-1.12.24-.54.62-.92.4-.4.9-.62.52-.24 1.1-.24t1.1.24q.54.22.94.62.4.38.62.92.24.52.24 1.12m18.974 10.26q-.2.26-.38.4t-.52.14-.72-.24q-.36-.24-.88-.52-.5-.3-1.22-.54t-1.8-.24q-1.4 0-2.46.5a4.8 4.8 0 0 0-1.76 1.44q-.7.92-1.06 2.26-.34 1.32-.34 2.98 0 1.72.38 3.06.381 1.34 1.08 2.26a4.8 4.8 0 0 0 1.72 1.4q1.02.48 2.28.48 1.24 0 2.02-.3t1.3-.66.88-.66q.38-.3.8-.3.52 0 .8.4l1.22 1.58a8 8 0 0 1-1.64 1.52q-.9.62-1.9 1.02a10 10 0 0 1-2.08.54q-1.08.18-2.18.18a9.1 9.1 0 0 1-3.56-.7 8.6 8.6 0 0 1-2.88-2.06q-1.22-1.36-1.94-3.3-.7-1.96-.7-4.46 0-2.26.64-4.18.64-1.94 1.86-3.34 1.24-1.4 3.06-2.18 1.821-.8 4.2-.8 2.22 0 3.9.72a9.4 9.4 0 0 1 3.02 2.04zm53.029-12.4-8.96 28.8h-4.22l-6.76-20.68q-.12-.34-.24-.74a32 32 0 0 1-.2-.86q-.1.46-.22.86a8 8 0 0 1-.22.74L157.624 97h-4.22l-8.96-28.8h3.92q.6 0 1 .3.42.28.56.78l5.4 18.46q.16.6.3 1.3t.28 1.46q.141-.76.3-1.46.18-.72.38-1.3l6.18-18.46q.14-.4.56-.74t1-.34h1.36q.62 0 1 .32.38.3.58.76l6.16 18.46q.201.58.36 1.26.18.66.32 1.4.14-.74.26-1.4.141-.68.3-1.26l5.38-18.46q.12-.44.54-.76.441-.32 1.02-.32zm14.134 16.3q0-1.08-.32-2-.3-.94-.9-1.62a4 4 0 0 0-1.5-1.08q-.879-.4-2.04-.4-2.34 0-3.68 1.34t-1.7 3.76zm-10.26 2.64q.081 1.74.54 3.02.46 1.26 1.22 2.1.78.84 1.84 1.26 1.08.4 2.4.4 1.26 0 2.18-.28.92-.3 1.6-.64.68-.36 1.16-.64.48-.3.88-.3.52 0 .8.4l1.22 1.58a7.7 7.7 0 0 1-1.72 1.52q-.96.62-2.04 1.02-1.08.38-2.22.54-1.14.18-2.22.18-2.12 0-3.94-.7a9 9 0 0 1-3.14-2.1q-1.32-1.38-2.08-3.42-.74-2.04-.74-4.7 0-2.12.66-3.96.681-1.84 1.92-3.2a9 9 0 0 1 3.04-2.14q1.8-.8 4.06-.8 1.881 0 3.48.62 1.6.6 2.76 1.78 1.161 1.18 1.8 2.9.66 1.7.66 3.88 0 1-.22 1.34t-.8.34zm22.51-19.74V97h-4.3V67.4zm9.688 0V97h-4.3V67.4zm9.327 11.9q.66-.68 1.36-1.22.72-.56 1.52-.96a8 8 0 0 1 1.7-.62q.9-.22 1.96-.22 1.68 0 2.94.56 1.28.56 2.14 1.58.88 1.02 1.32 2.46.44 1.42.44 3.14V97h-4.28V84.02q0-2.06-.96-3.2-.939-1.14-2.88-1.14-1.44 0-2.68.66-1.22.66-2.3 1.8V97h-4.3V76.6h2.6q.88 0 1.12.82zm31.782 5.2q0-1.08-.32-2-.3-.94-.9-1.62a4 4 0 0 0-1.5-1.08q-.879-.4-2.04-.4-2.34 0-3.68 1.34t-1.7 3.76zm-10.26 2.64q.081 1.74.54 3.02.46 1.26 1.22 2.1.78.84 1.84 1.26 1.08.4 2.4.4 1.26 0 2.18-.28.92-.3 1.6-.64.68-.36 1.16-.64.48-.3.88-.3.52 0 .8.4l1.22 1.58a7.7 7.7 0 0 1-1.72 1.52q-.96.62-2.04 1.02-1.08.38-2.22.54-1.14.18-2.22.18-2.12 0-3.94-.7a9 9 0 0 1-3.14-2.1q-1.32-1.38-2.08-3.42-.74-2.04-.74-4.7 0-2.12.66-3.96.681-1.84 1.92-3.2a9 9 0 0 1 3.04-2.14q1.8-.8 4.06-.8 1.881 0 3.48.62 1.6.6 2.76 1.78 1.161 1.18 1.8 2.9.66 1.7.66 3.88 0 1-.22 1.34t-.8.34zm30.31-6.84q-.159.28-.36.4t-.5.12q-.34 0-.74-.2-.4-.22-.94-.48a7.4 7.4 0 0 0-1.28-.46q-.72-.22-1.7-.22-.8 0-1.46.2-.64.18-1.1.54-.44.34-.68.82-.24.46-.24 1 0 .72.44 1.2t1.16.84q.72.34 1.64.62t1.88.6 1.88.74 1.64 1.04q.72.6 1.16 1.48.44.86.44 2.1 0 1.44-.52 2.66a6 6 0 0 1-1.52 2.12q-1 .9-2.5 1.4-1.48.5-3.4.5a10.5 10.5 0 0 1-2.06-.2q-.98-.18-1.88-.5a11 11 0 0 1-1.66-.8 9 9 0 0 1-1.36-1l1-1.64q.18-.3.44-.46.28-.18.68-.18.42 0 .82.28.42.26.96.58.56.32 1.34.6.78.26 1.94.26.96 0 1.66-.22.7-.24 1.16-.64t.68-.9q.22-.52.22-1.1 0-.78-.44-1.28t-1.18-.86q-.72-.36-1.66-.64a76 76 0 0 1-1.88-.6q-.96-.32-1.9-.74a7 7 0 0 1-1.66-1.06 5.1 5.1 0 0 1-1.16-1.58q-.44-.94-.44-2.28 0-1.22.48-2.32a5.8 5.8 0 0 1 1.44-1.94q.96-.84 2.34-1.32 1.4-.5 3.22-.5 2.06 0 3.74.66t2.82 1.8zm17.461 0q-.159.28-.36.4t-.5.12q-.34 0-.74-.2-.4-.22-.94-.48a7.4 7.4 0 0 0-1.28-.46q-.72-.22-1.7-.22-.8 0-1.46.2-.64.18-1.1.54-.44.34-.68.82-.24.46-.24 1 0 .72.44 1.2t1.16.84q.72.34 1.64.62t1.88.6 1.88.74 1.64 1.04q.72.6 1.16 1.48.44.86.44 2.1 0 1.44-.52 2.66a6 6 0 0 1-1.52 2.12q-1 .9-2.5 1.4-1.48.5-3.4.5a10.5 10.5 0 0 1-2.06-.2q-.98-.18-1.88-.5a11 11 0 0 1-1.66-.8 9 9 0 0 1-1.36-1l1-1.64q.18-.3.44-.46.28-.18.68-.18.42 0 .82.28.42.26.96.58.56.32 1.34.6.78.26 1.94.26.96 0 1.66-.22.7-.24 1.16-.64t.68-.9q.22-.52.22-1.1 0-.78-.44-1.28t-1.18-.86q-.72-.36-1.66-.64a76 76 0 0 1-1.88-.6q-.96-.32-1.9-.74a7 7 0 0 1-1.66-1.06 5.1 5.1 0 0 1-1.16-1.58q-.44-.94-.44-2.28 0-1.22.48-2.32a5.8 5.8 0 0 1 1.44-1.94q.96-.84 2.34-1.32 1.4-.5 3.22-.5 2.06 0 3.74.66t2.82 1.8z" fill="#4F1964"/><defs><linearGradient id="a" x1="167.362" y1="29.004" x2="182.969" y2="42.008" gradientUnits="userSpaceOnUse"><stop offset=".18" stop-color="#805AA0"/><stop offset=".214" stop-color="#7A77A7"/><stop offset="1" stop-color="#66AAAF"/></linearGradient><linearGradient id="b" x1="168.51" y1="30.349" x2="169.81" y2="38.217" gradientUnits="userSpaceOnUse"><stop stop-color="#6AB7A4"/><stop offset=".18" stop-color="#A7805D"/><stop offset=".55" stop-color="#A55731"/><stop offset="1" stop-color="#C34230"/></linearGradient><linearGradient id="c" x1="170.777" y1="35.275" x2="166.481" y2="20.553" gradientUnits="userSpaceOnUse"><stop stop-color="#AFAC79"/><stop offset="1" stop-color="#4F1964"/></linearGradient></defs></svg>