<svg width="40" height="40" viewBox="0 0 40 40" fill="none" xmlns="http://www.w3.org/2000/svg"><rect width="40" height="40" rx="5" fill="#28514F"/><path d="M25 37.916H15C5.95 37.916 2.083 34.05 2.083 25V15C2.083 5.95 5.95 2.083 15 2.083h10c9.05 0 12.916 3.867 12.916 12.917v10c0 9.05-3.866 12.916-12.916 12.916M15 4.583C7.316 4.583 4.583 7.316 4.583 15v10c0 7.683 2.733 10.416 10.417 10.416h10c7.683 0 10.416-2.733 10.416-10.416V15c0-7.684-2.733-10.417-10.416-10.417z" fill="#fff"/><path d="M20 27.084c-3.9 0-7.083-3.184-7.083-7.084S16.1 12.917 20 12.917 27.084 16.1 27.084 20 23.9 27.084 20 27.084m0-11.667A4.58 4.58 0 0 0 15.417 20 4.58 4.58 0 0 0 20 24.584 4.58 4.58 0 0 0 24.584 20 4.58 4.58 0 0 0 20 15.417m8.334-2.915a1.7 1.7 0 0 1-.634-.134q-.3-.125-.55-.35a2 2 0 0 1-.366-.55 1.6 1.6 0 0 1-.117-.633c0-.217.033-.433.117-.633.1-.217.216-.384.366-.55.084-.067.167-.15.25-.2q.15-.1.3-.15c.1-.05.2-.084.317-.1.533-.117 1.1.066 1.5.45.15.166.267.333.35.55.083.2.133.416.133.633s-.05.433-.133.633q-.125.3-.35.55-.25.225-.55.35a1.7 1.7 0 0 1-.633.134" fill="#fff"/></svg>