<svg width="40" height="40" viewBox="0 0 40 40" fill="none" xmlns="http://www.w3.org/2000/svg"><rect width="40" height="40" rx="5" fill="#28514F"/><mask id="a" style="mask-type:luminance" maskUnits="userSpaceOnUse" x="3" y="3" width="34" height="34"><path fill-rule="evenodd" clip-rule="evenodd" d="M36.094 13.853q0-.574-.002-1.147a46 46 0 0 0-.015-.965c-.019-.702-.06-1.409-.185-2.102a7.1 7.1 0 0 0-.658-1.998 6.7 6.7 0 0 0-2.94-2.937 7.1 7.1 0 0 0-1.999-.659c-.693-.124-1.4-.166-2.102-.184a46 46 0 0 0-.966-.015l-1.147-.002-4.44-.016h-3.32l-4.36.016q-.576 0-1.15.002-.484.002-.968.015c-.703.018-1.412.06-2.107.185a7.1 7.1 0 0 0-2.002.658A6.73 6.73 0 0 0 4.788 7.64a7 7 0 0 0-.66 1.998c-.125.694-.166 1.4-.185 2.102q-.013.482-.015.965c-.002.382-.022.857-.022 1.24v7.656l.02 4.391q0 .575.002 1.148.002.484.015.967c.019.702.06 1.41.185 2.105.127.704.334 1.36.66 2a6.73 6.73 0 0 0 2.944 2.941 7.1 7.1 0 0 0 2.004.66c.695.125 1.404.166 2.106.185q.485.012.968.014.574.004 1.15.003h12.12q.574 0 1.147-.003.483-.002.966-.014c.701-.019 1.41-.06 2.103-.185a7.1 7.1 0 0 0 1.999-.66 6.72 6.72 0 0 0 2.938-2.94 7.1 7.1 0 0 0 .66-2.002c.124-.694.165-1.402.184-2.104q.013-.483.015-.967.002-.573.002-1.148z" fill="#fff"/></mask><g mask="url(#a)"><path fill="#fff" d="M1.641 1.406h35.703v35.703H1.641z"/><path d="M10.211 17.157c0-.324.263-.586.586-.586h2.935c.324 0 .586.262.586.586V29.29a.586.586 0 0 1-.586.586h-2.935a.586.586 0 0 1-.586-.586zm-.328-4.775q0-.986.684-1.67A2.32 2.32 0 0 1 12.265 10q.985 0 1.67.712.712.684.712 1.67t-.712 1.697a2.27 2.27 0 0 1-1.67.685 2.36 2.36 0 0 1-1.698-.685 2.36 2.36 0 0 1-.684-1.697m7.385 4.775c0-.324.263-.586.586-.586h2.77c.325 0 .587.262.587.586v1.187a.034.034 0 0 0 .064.015q.191-.375.538-.748a4 4 0 0 1 .849-.684q.493-.301 1.122-.493t1.37-.192q1.56 0 2.518.493.959.465 1.479 1.314.546.849.739 1.999.19 1.15.191 2.491v6.751a.586.586 0 0 1-.586.586h-2.934a.586.586 0 0 1-.586-.586v-5.93q0-.574-.055-1.177-.027-.63-.247-1.15a1.83 1.83 0 0 0-.63-.848q-.41-.33-1.204-.329-.794 0-1.287.301a1.94 1.94 0 0 0-.766.767q-.247.465-.329 1.067a9 9 0 0 0-.082 1.26v6.04a.586.586 0 0 1-.586.585h-2.935a.586.586 0 0 1-.586-.586z" fill="#28514F"/></g></svg>