<svg width="208" height="29" viewBox="0 0 208 29" fill="none" xmlns="http://www.w3.org/2000/svg"><path d="M7.428 15.528q.936 0 1.644-.24.72-.24 1.188-.672.48-.444.72-1.068t.24-1.392q0-.756-.24-1.356-.228-.6-.696-1.02t-1.188-.636q-.708-.228-1.668-.228H4.86v6.612zm0-8.808q1.692 0 2.928.396 1.248.396 2.052 1.116a4.34 4.34 0 0 1 1.212 1.716q.396.996.396 2.208 0 1.236-.42 2.268a4.8 4.8 0 0 1-1.248 1.764q-.828.732-2.064 1.152-1.224.408-2.856.408H4.86V24H2.052V6.72z" fill="#4F1964"/><path d="M12.944 7.648q.12-.816.448-1.432.336-.615.84-1.024.504-.416 1.152-.624.656-.216 1.416-.216.768 0 1.392.224a3.2 3.2 0 0 1 1.08.608q.456.391.696.936.248.544.248 1.192 0 .552-.136.976-.127.416-.376.736-.24.32-.592.536a3.7 3.7 0 0 1-.792.36q1.072.312 1.608 1 .536.68.536 1.712 0 .832-.312 1.48-.311.648-.848 1.096a3.7 3.7 0 0 1-1.24.688q-.704.232-1.496.232-.888 0-1.536-.208a3.4 3.4 0 0 1-1.12-.608 3.5 3.5 0 0 1-.776-.96 6.6 6.6 0 0 1-.528-1.256l.744-.312a.9.9 0 0 1 .56-.072.54.54 0 0 1 .392.296q.127.256.288.552.16.287.408.536.256.24.624.408.375.16.92.16.552 0 .96-.176.416-.184.688-.464a1.92 1.92 0 0 0 .552-1.336q0-.432-.104-.792a1.24 1.24 0 0 0-.408-.624q-.296-.256-.848-.4-.544-.152-1.432-.152V9.48q.728-.008 1.224-.144.504-.144.8-.384.305-.248.432-.592.136-.344.136-.752 0-.44-.136-.776a1.5 1.5 0 0 0-.384-.56 1.5 1.5 0 0 0-.576-.344 2.3 2.3 0 0 0-.744-.112q-.392 0-.728.112a2.1 2.1 0 0 0-.592.312q-.256.2-.432.48a2 2 0 0 0-.256.6q-.112.328-.304.44-.184.112-.544.048z" fill="#C86251"/><path d="M42.356 6.72V24h-2.808v-7.692h-8.676V24h-2.82V6.72h2.82v7.56h8.676V6.72zm8.555 4.848q1.356 0 2.448.444 1.104.444 1.872 1.26.78.816 1.2 1.98t.42 2.616-.42 2.616a5.7 5.7 0 0 1-1.2 1.992 5.2 5.2 0 0 1-1.872 1.26q-1.092.444-2.448.444-1.368 0-2.472-.444a5.3 5.3 0 0 1-1.872-1.26 5.7 5.7 0 0 1-1.2-1.992q-.42-1.164-.42-2.616t.42-2.616 1.2-1.98a5.3 5.3 0 0 1 1.872-1.26q1.104-.444 2.472-.444m0 10.596q1.656 0 2.46-1.104.816-1.116.816-3.18t-.816-3.18q-.804-1.128-2.46-1.128-1.68 0-2.496 1.128-.816 1.116-.816 3.18t.816 3.18q.816 1.104 2.496 1.104M61.958 6.24V24h-2.58V6.24zm5.872 5.52V24h-2.58V11.76zm.432-3.696q0 .348-.144.66a1.7 1.7 0 0 1-.372.552q-.24.228-.564.372a1.7 1.7 0 0 1-.672.132q-.348 0-.66-.132-.3-.144-.528-.372a2 2 0 0 1-.372-.552 1.7 1.7 0 0 1-.132-.66q0-.36.132-.672.144-.312.372-.54.228-.24.528-.372.312-.144.66-.144.36 0 .672.144.324.132.564.372.24.228.372.54.144.312.144.672M78.38 13.98a.64.64 0 0 1-.216.24.6.6 0 0 1-.3.072q-.204 0-.444-.12-.24-.132-.564-.288a4.5 4.5 0 0 0-.768-.276 3.5 3.5 0 0 0-1.02-.132q-.48 0-.876.12-.384.108-.66.324-.264.204-.408.492a1.3 1.3 0 0 0-.144.6q0 .432.264.72t.696.504q.432.204.984.372t1.128.36 1.128.444.984.624q.432.36.696.888.264.516.264 1.26 0 .864-.312 1.596a3.6 3.6 0 0 1-.912 1.272q-.6.54-1.5.84-.888.3-2.04.3-.636 0-1.236-.12a7 7 0 0 1-1.128-.3 7 7 0 0 1-.996-.48 5.4 5.4 0 0 1-.816-.6l.6-.984a.74.74 0 0 1 .672-.384q.252 0 .492.168.252.156.576.348.336.192.804.36.468.156 1.164.156.576 0 .996-.132a2.1 2.1 0 0 0 .696-.384q.276-.24.408-.54.132-.312.132-.66 0-.468-.264-.768a2.2 2.2 0 0 0-.708-.516 6 6 0 0 0-.996-.384 45 45 0 0 1-1.128-.36 12 12 0 0 1-1.14-.444q-.552-.252-.996-.636a3.1 3.1 0 0 1-.696-.948q-.264-.564-.264-1.368 0-.732.288-1.392.3-.66.864-1.164.576-.504 1.404-.792.84-.3 1.932-.3 1.236 0 2.244.396t1.692 1.08zM93.429 24h-2.58V13.788h-5.964v6.948q0 .66.324 1.008t.864.348q.3 0 .516-.072.216-.084.372-.168.156-.096.264-.168a.4.4 0 0 1 .228-.084q.216 0 .348.24l.768 1.26q-.6.528-1.416.816a5.2 5.2 0 0 1-1.68.276q-1.524 0-2.352-.852-.816-.864-.816-2.424v-7.128H80.96a.56.56 0 0 1-.372-.132q-.156-.144-.156-.42v-1.044l1.98-.288.564-3.54a.65.65 0 0 1 .204-.324.55.55 0 0 1 .384-.132h1.32v4.02h8.544zm.528-15.996q0 .348-.144.66-.132.3-.372.54-.24.228-.564.372a1.7 1.7 0 0 1-.66.132q-.348 0-.66-.132-.3-.144-.54-.372a2.1 2.1 0 0 1-.372-.54 1.7 1.7 0 0 1-.132-.66 1.7 1.7 0 0 1 .504-1.224q.24-.24.54-.372.312-.144.66-.144t.66.144q.324.132.564.372.24.228.372.552.144.312.144.672m11.384 6.156q-.12.156-.228.24a.5.5 0 0 1-.312.084.8.8 0 0 1-.432-.144q-.216-.144-.528-.312-.3-.18-.732-.324t-1.08-.144q-.84 0-1.476.3-.624.3-1.056.864-.42.552-.636 1.356a7.2 7.2 0 0 0-.204 1.788q0 1.032.228 1.836t.648 1.356q.432.552 1.032.84.612.288 1.368.288.744 0 1.212-.18a3.7 3.7 0 0 0 .78-.396q.312-.216.528-.396a.76.76 0 0 1 .48-.18.55.55 0 0 1 .48.24l.732.948q-.444.54-.984.912t-1.14.612q-.6.228-1.248.324a8 8 0 0 1-1.308.108 5.4 5.4 0 0 1-2.136-.42 5.2 5.2 0 0 1-1.728-1.236q-.732-.816-1.164-1.98-.42-1.176-.42-2.676 0-1.356.384-2.508a5.8 5.8 0 0 1 1.116-2.004 5.1 5.1 0 0 1 1.836-1.308q1.092-.48 2.52-.48 1.332 0 2.34.432 1.02.432 1.812 1.224zm31.818-7.44L131.783 24h-2.532l-4.056-12.408a10 10 0 0 1-.144-.444q-.06-.24-.12-.516a7 7 0 0 1-.132.516q-.06.24-.132.444L120.575 24h-2.532l-5.376-17.28h2.352q.36 0 .6.18.252.168.336.468l3.24 11.076q.096.36.18.78t.168.876q.084-.456.18-.876.108-.432.228-.78l3.708-11.076q.084-.24.336-.444a.92.92 0 0 1 .6-.204h.816q.372 0 .6.192.228.18.348.456l3.696 11.076q.12.348.216.756.108.396.192.84.084-.444.156-.84.084-.408.18-.756l3.228-11.076a.85.85 0 0 1 .324-.456q.264-.192.612-.192zm8.48 9.78a3.6 3.6 0 0 0-.192-1.2q-.18-.564-.54-.972-.36-.42-.9-.648-.528-.24-1.224-.24-1.404 0-2.208.804t-1.02 2.256zm-6.156 1.584q.048 1.044.324 1.812.276.756.732 1.26.468.504 1.104.756.648.24 1.44.24.756 0 1.308-.168.552-.18.96-.384.408-.216.696-.384.288-.18.528-.18a.55.55 0 0 1 .48.24l.732.948q-.456.54-1.032.912a6.3 6.3 0 0 1-1.224.612q-.648.228-1.332.324-.684.108-1.332.108a6.5 6.5 0 0 1-2.364-.42 5.4 5.4 0 0 1-1.884-1.26q-.792-.828-1.248-2.052-.444-1.224-.444-2.82 0-1.272.396-2.376a5.8 5.8 0 0 1 1.152-1.92 5.4 5.4 0 0 1 1.824-1.284q1.08-.48 2.436-.48a5.7 5.7 0 0 1 2.088.372q.96.36 1.656 1.068a4.9 4.9 0 0 1 1.08 1.74q.396 1.02.396 2.328 0 .6-.132.804t-.48.204zM152.989 6.24V24h-2.58V6.24zm5.813 0V24h-2.58V6.24zm5.596 7.14q.396-.408.816-.732a5.5 5.5 0 0 1 .912-.576q.48-.24 1.02-.372t1.176-.132q1.008 0 1.764.336.768.336 1.284.948.528.612.792 1.476.264.852.264 1.884V24h-2.568v-7.788q0-1.236-.576-1.92-.564-.684-1.728-.684a3.4 3.4 0 0 0-1.608.396 5.5 5.5 0 0 0-1.38 1.08V24h-2.58V11.76h1.56q.528 0 .672.492zm19.069 3.12a3.6 3.6 0 0 0-.192-1.2q-.18-.564-.54-.972-.36-.42-.9-.648-.528-.24-1.224-.24-1.404 0-2.208.804t-1.02 2.256zm-6.156 1.584q.048 1.044.324 1.812.276.756.732 1.26.468.504 1.104.756.648.24 1.44.24.756 0 1.308-.168.552-.18.96-.384.408-.216.696-.384.288-.18.528-.18a.55.55 0 0 1 .48.24l.732.948q-.456.54-1.032.912a6.3 6.3 0 0 1-1.224.612q-.648.228-1.332.324-.684.108-1.332.108a6.5 6.5 0 0 1-2.364-.42 5.4 5.4 0 0 1-1.884-1.26q-.792-.828-1.248-2.052-.444-1.224-.444-2.82 0-1.272.396-2.376a5.8 5.8 0 0 1 1.152-1.92 5.4 5.4 0 0 1 1.824-1.284q1.08-.48 2.436-.48a5.7 5.7 0 0 1 2.088.372q.96.36 1.656 1.068a4.9 4.9 0 0 1 1.08 1.74q.396 1.02.396 2.328 0 .6-.132.804t-.48.204zm18.186-4.104a.64.64 0 0 1-.216.24.6.6 0 0 1-.3.072q-.204 0-.444-.12-.24-.132-.564-.288a4.5 4.5 0 0 0-.768-.276 3.5 3.5 0 0 0-1.02-.132q-.48 0-.876.12-.384.108-.66.324-.264.204-.408.492a1.3 1.3 0 0 0-.144.6q0 .432.264.72t.696.504q.432.204.984.372t1.128.36 1.128.444.984.624q.432.36.696.888.264.516.264 1.26 0 .864-.312 1.596a3.6 3.6 0 0 1-.912 1.272q-.6.54-1.5.84-.888.3-2.04.3-.636 0-1.236-.12a7 7 0 0 1-1.128-.3 7 7 0 0 1-.996-.48 5.4 5.4 0 0 1-.816-.6l.6-.984a.74.74 0 0 1 .672-.384q.252 0 .492.168.252.156.576.348.336.192.804.36.468.156 1.164.156.576 0 .996-.132a2.1 2.1 0 0 0 .696-.384q.276-.24.408-.54.132-.312.132-.66 0-.468-.264-.768a2.2 2.2 0 0 0-.708-.516 6 6 0 0 0-.996-.384 45 45 0 0 1-1.128-.36 12 12 0 0 1-1.14-.444q-.552-.252-.996-.636a3.1 3.1 0 0 1-.696-.948q-.264-.564-.264-1.368 0-.732.288-1.392.3-.66.864-1.164.576-.504 1.404-.792.84-.3 1.932-.3 1.236 0 2.244.396t1.692 1.08zm10.477 0a.64.64 0 0 1-.216.24.6.6 0 0 1-.3.072q-.204 0-.444-.12-.24-.132-.564-.288a4.5 4.5 0 0 0-.768-.276 3.5 3.5 0 0 0-1.02-.132q-.48 0-.876.12-.384.108-.66.324-.264.204-.408.492a1.3 1.3 0 0 0-.144.6q0 .432.264.72t.696.504q.432.204.984.372t1.128.36 1.128.444.984.624q.432.36.696.888.264.516.264 1.26 0 .864-.312 1.596a3.6 3.6 0 0 1-.912 1.272q-.6.54-1.5.84-.888.3-2.04.3-.636 0-1.236-.12a7 7 0 0 1-1.128-.3 7 7 0 0 1-.996-.48 5.4 5.4 0 0 1-.816-.6l.6-.984a.74.74 0 0 1 .672-.384q.252 0 .492.168.252.156.576.348.336.192.804.36.468.156 1.164.156.576 0 .996-.132a2.1 2.1 0 0 0 .696-.384q.276-.24.408-.54.132-.312.132-.66 0-.468-.264-.768a2.2 2.2 0 0 0-.708-.516 6 6 0 0 0-.996-.384 45 45 0 0 1-1.128-.36 12 12 0 0 1-1.14-.444q-.552-.252-.996-.636a3.1 3.1 0 0 1-.696-.948q-.264-.564-.264-1.368 0-.732.288-1.392.3-.66.864-1.164.576-.504 1.404-.792.84-.3 1.932-.3 1.236 0 2.244.396t1.692 1.08z" fill="#4F1964"/></svg>