<svg width="32" height="24" viewBox="0 0 32 24" fill="none" xmlns="http://www.w3.org/2000/svg"><path d="M12.757 14.217a13 13 0 0 0 1.344 2.545q.535.795 1.18 1.512.342.389.72.755c3.22 3.148 7.932 4.97 12.803 4.97 1.063 0 2.133-.087 3.196-.266-1.711-4.278-7.915-8.087-12.784-9.52q-.175.456-.388.901c4.14 1.209 9.815 4.374 11.616 7.85-5.179.473-10.36-1.317-13.724-4.69q-.378-.375-.72-.776a13 13 0 0 1-.928-1.216c-.483-.716-.88-1.46-1.191-2.222q-.57.061-1.124.157" fill="url(#a)"/><path d="M0 23.733c1.063.178 2.133.267 3.196.267 4.116 0 9.718-2.682 12.804-4.985q-.372-.36-.715-.74c-3.29 2.467-9.31 5.091-13.728 4.69C4.053 18.147 9.743 14.903 16 14.903c.964 0 1.915.077 2.842.227q.221-.452.406-.913A19.3 19.3 0 0 0 16 13.943c-7.19 0-13.683 4-16 9.79" fill="url(#b)"/><path d="M13.928 14.05C13.08 10.375 13.385 4.612 16 1.54c3.622 4.26 4.057 10.103.928 14.743q-.427.634-.928 1.216c.229.267.466.527.72.776q.643-.717 1.18-1.511C21.495 11.429 20.696 4.612 16 0c-3.47 3.407-4.165 9.884-3.176 14.214q.549-.095 1.104-.164" fill="url(#c)"/><defs><linearGradient id="a" x1="12.863" y1="12.005" x2="28.47" y2="25.009" gradientUnits="userSpaceOnUse"><stop offset=".18" stop-color="#805AA0"/><stop offset=".214" stop-color="#7A77A7"/><stop offset="1" stop-color="#66AAAF"/></linearGradient><linearGradient id="b" x1="14.011" y1="13.349" x2="15.311" y2="21.217" gradientUnits="userSpaceOnUse"><stop stop-color="#6AB7A4"/><stop offset=".18" stop-color="#A7805D"/><stop offset=".55" stop-color="#A55731"/><stop offset="1" stop-color="#C34230"/></linearGradient><linearGradient id="c" x1="16.277" y1="18.274" x2="11.982" y2="3.553" gradientUnits="userSpaceOnUse"><stop stop-color="#AFAC79"/><stop offset="1" stop-color="#4F1964"/></linearGradient></defs></svg>