<svg width="37" height="19" viewBox="0 0 37 19" fill="none" xmlns="http://www.w3.org/2000/svg"><mask id="a" style="mask-type:luminance" maskUnits="userSpaceOnUse" x="0" y="0" width="37" height="19"><path d="m26.587 16.457.16.76 6.385-1.758zm-1.423-2.943.438.64 5.229-4.079zm-2.436-2.174.65.424 3.276-5.778zm-3.078-1.07.761.14.826-6.596zm-3.252.193.757-.162-1.751-6.412zm-2.931 1.428.638-.44-4.061-5.252zm-2.164 2.446.422-.651-5.753-3.291zm-1.066 3.092.141-.764-6.569-.83zm16.611 1.11v.077c.423.15.846.212 1.268.264.857.145 1.696-.07 2.536-.177.848-.063 1.692.216 2.536.242 1.284.109 2.54.031 3.804-.329v-.077c-.846-.25-1.69-.34-2.536-.377-.85-.003-1.695.052-2.536.203a5.5 5.5 0 0 1-1.268.087c-.422-.023-.845-.148-1.268-.199a6.6 6.6 0 0 0-2.536.286m-.648-3.204.029.073c.447-.025.862-.13 1.272-.244.846-.196 1.54-.716 2.275-1.139.76-.383 1.646-.45 2.435-.75 1.228-.393 2.36-.949 3.39-1.766l-.03-.072c-.877.094-1.691.336-2.487.627-.785.323-1.546.7-2.265 1.162-.363.229-.738.43-1.138.568-.4.14-.838.188-1.247.303a6.6 6.6 0 0 0-2.235 1.238m-1.82-2.709.054.055c.403-.195.747-.45 1.082-.714.708-.506 1.15-1.254 1.668-1.926.555-.646 1.349-1.05 1.964-1.63.984-.835 1.818-1.783 2.458-2.934l-.055-.055c-.773.424-1.434.961-2.057 1.535a14 14 0 0 0-1.651 1.944 5.5 5.5 0 0 1-.835.963c-.316.283-.703.495-1.037.76a6.6 6.6 0 0 0-1.592 2.002m-2.715-1.804.071.03c.299-.335.52-.703.728-1.076.461-.739.585-1.6.808-2.42.266-.81.846-1.488 1.193-2.26.59-1.15 1-2.346 1.153-3.656l-.071-.03c-.554.689-.96 1.44-1.317 2.21-.328.786-.6 1.592-.784 2.43a5.6 5.6 0 0 1-.405 1.21c-.183.383-.46.728-.668 1.1a6.7 6.7 0 0 0-.708 2.462M18.47 10.2h.078c.148-.424.21-.849.262-1.273.145-.86-.07-1.703-.176-2.547-.063-.851.215-1.7.24-2.547.11-1.29.032-2.552-.326-3.82h-.078c-.249.849-.337 1.698-.374 2.546-.004.854.052 1.703.201 2.547.072.425.114.85.087 1.274-.023.424-.148.849-.198 1.273a6.7 6.7 0 0 0 .284 2.547m-3.189.652.071-.03c-.024-.449-.128-.865-.242-1.277-.194-.85-.713-1.546-1.133-2.285-.383-.763-.45-1.653-.748-2.446-.391-1.232-.944-2.37-1.758-3.404l-.072.03c.094.88.335 1.699.625 2.497.322.79.696 1.553 1.156 2.276.228.365.429.74.566 1.143.14.401.187.84.302 1.252a6.7 6.7 0 0 0 1.233 2.244m-2.698 1.829.055-.055c-.194-.406-.448-.75-.71-1.088-.504-.71-1.249-1.154-1.919-1.675-.643-.558-1.044-1.355-1.623-1.972-.83-.989-1.774-1.826-2.92-2.47l-.055.056c.421.777.956 1.44 1.528 2.066A14 14 0 0 0 8.875 9.2c.35.25.678.52.958.84.282.316.493.704.756 1.04a6.6 6.6 0 0 0 1.994 1.6m-1.795 2.726.03-.072c-.335-.3-.701-.521-1.072-.731-.736-.464-1.593-.587-2.41-.811-.807-.268-1.482-.85-2.25-1.198-1.145-.595-2.336-1.006-3.64-1.159l-.03.072c.686.556 1.433.963 2.2 1.322.783.33 1.586.603 2.42.788.418.096.824.219 1.204.406.382.184.725.462 1.096.672a6.6 6.6 0 0 0 2.452.71m-.62 3.208a6.6 6.6 0 0 1-2.537.285c-.423-.05-.845-.175-1.268-.199a5.5 5.5 0 0 0-1.268.088 14 14 0 0 1-2.536.202c-.845-.037-1.69-.126-2.536-.376v-.078c1.264-.36 2.52-.437 3.804-.328.844.026 1.689.304 2.536.242.84-.108 1.68-.323 2.536-.177.423.05.845.114 1.268.263z" fill="#fff"/></mask><g mask="url(#a)"><mask id="b" style="mask-type:luminance" maskUnits="userSpaceOnUse" x="0" y="0" width="37" height="19"><path d="m26.587 16.457.16.76 6.385-1.759zm-1.423-2.944.438.64 5.229-4.078zm-2.436-2.173.65.424 3.276-5.778zm-3.078-1.071.761.141.826-6.597zm-3.252.193.757-.161-1.751-6.413zm-2.931 1.429.638-.44-4.061-5.252zm-2.164 2.446.422-.652-5.753-3.29zm-1.066 3.091.141-.764-6.569-.829zm16.611 1.11v.078c.423.149.846.212 1.268.264.857.145 1.696-.07 2.536-.178.848-.062 1.692.216 2.536.242 1.284.11 2.54.032 3.804-.328v-.078c-.846-.25-1.69-.34-2.536-.376-.85-.003-1.695.052-2.536.202a5.5 5.5 0 0 1-1.268.088c-.422-.024-.845-.149-1.268-.2a6.6 6.6 0 0 0-2.536.286m-.648-3.203.029.072c.447-.025.862-.129 1.272-.244.846-.195 1.54-.716 2.275-1.138.76-.384 1.646-.451 2.435-.751 1.228-.393 2.36-.948 3.39-1.766l-.03-.072c-.877.094-1.691.337-2.487.627-.785.324-1.546.7-2.265 1.162-.363.23-.738.43-1.138.568-.4.141-.838.188-1.247.304a6.6 6.6 0 0 0-2.235 1.238m-1.82-2.71.054.055c.403-.194.747-.45 1.082-.713.708-.506 1.15-1.254 1.668-1.927.555-.646 1.349-1.049 1.964-1.63.984-.834 1.818-1.782 2.458-2.933l-.055-.055c-.773.423-1.434.96-2.057 1.535-.604.6-1.163 1.24-1.651 1.944a5.5 5.5 0 0 1-.835.962c-.316.284-.703.495-1.037.76a6.7 6.7 0 0 0-1.592 2.003m-2.715-1.803.071.03c.299-.335.52-.703.728-1.076.461-.74.585-1.6.808-2.42.266-.811.846-1.488 1.193-2.261.59-1.15 1-2.346 1.153-3.656l-.071-.03c-.554.69-.96 1.44-1.317 2.21-.328.787-.6 1.593-.784 2.43a5.6 5.6 0 0 1-.405 1.21c-.183.384-.46.728-.668 1.1a6.7 6.7 0 0 0-.708 2.463m-3.195-.623h.078c.148-.425.21-.85.262-1.274.145-.86-.07-1.703-.176-2.547-.063-.851.215-1.7.24-2.547.11-1.289.032-2.551-.326-3.82h-.078c-.249.85-.337 1.698-.374 2.547-.004.853.052 1.703.201 2.547.072.425.114.849.087 1.273-.023.425-.148.85-.198 1.274a6.7 6.7 0 0 0 .284 2.547m-3.189.652.071-.03c-.024-.45-.128-.866-.242-1.277-.194-.851-.713-1.547-1.133-2.286-.383-.762-.45-1.653-.748-2.445-.391-1.233-.944-2.37-1.758-3.404l-.072.03c.094.88.335 1.698.625 2.497.322.79.696 1.553 1.156 2.275.228.365.429.74.566 1.143.14.402.187.841.302 1.253a6.7 6.7 0 0 0 1.233 2.244m-2.698 1.828.055-.055c-.194-.405-.448-.75-.71-1.087-.504-.711-1.249-1.155-1.919-1.676-.643-.558-1.044-1.354-1.623-1.972-.83-.988-1.774-1.826-2.92-2.469l-.055.055c.421.777.956 1.44 1.528 2.067A14 14 0 0 0 8.875 9.2c.35.25.678.52.958.839.282.316.493.705.756 1.04a6.6 6.6 0 0 0 1.994 1.6m-1.795 2.726.03-.072c-.335-.3-.701-.52-1.072-.73-.736-.464-1.593-.588-2.41-.812-.807-.268-1.482-.85-2.25-1.198C3.94 12 2.75 11.588 1.445 11.435l-.03.072c.686.556 1.433.963 2.2 1.322.783.33 1.586.603 2.42.787.418.096.824.22 1.204.407.382.184.725.462 1.096.671a6.6 6.6 0 0 0 2.452.711m-.62 3.209a6.6 6.6 0 0 1-2.537.285c-.423-.05-.845-.175-1.268-.2a5.5 5.5 0 0 0-1.268.088c-.84.15-1.686.206-2.536.203-.845-.037-1.69-.126-2.536-.376v-.078c1.264-.36 2.52-.438 3.804-.329.844.026 1.689.305 2.536.242.84-.107 1.68-.322 2.536-.177.423.051.845.115 1.268.264z" fill="#fff"/></mask><g mask="url(#b)"><path d="M36.942-1.354-.674.037.073 20.42l37.616-1.391z" fill="#8F2615"/></g></g></svg>